<?xml version="1.0" encoding="UTF-8"?>
<svg version="1.1" xmlns="http://www.w3.org/2000/svg" width="1920" height="433">
<path d="M0 0 C633.6 0 1267.2 0 1920 0 C1920 133.32 1920 266.64 1920 404 C1286.4 404 652.8 404 0 404 C0 270.68 0 137.36 0 0 Z " fill="#FF9689" transform="translate(0,29)"/>
<path d="M0 0 C2.91704415 1.04714406 3.88969775 1.81190563 5.484375 4.53125 C5.90203125 5.5109375 6.3196875 6.490625 6.75 7.5 C7.17796875 8.4796875 7.6059375 9.459375 8.046875 10.46875 C9 13 9 13 9 15 C9.99 15 10.98 15 12 15 C12.3403125 13.9790625 12.3403125 13.9790625 12.6875 12.9375 C14.35572357 9.20385676 16.55729608 6.27836579 19 3 C19.99 3.33 20.98 3.66 22 4 C21.90912109 5.09441406 21.90912109 5.09441406 21.81640625 6.2109375 C21.39854871 11.41808535 21.00912158 16.6187032 20.74609375 21.8359375 C20.70476318 22.6501416 20.66343262 23.4643457 20.62084961 24.30322266 C20.54074312 25.92509578 20.46468622 27.54717435 20.39282227 29.16943359 C20.10943202 34.89056798 20.10943202 34.89056798 19 36 C16.27275721 36.10099488 13.57137477 36.13970529 10.84375 36.1328125 C9.61754944 36.13424759 9.61754944 36.13424759 8.36657715 36.13571167 C6.63484622 36.13639345 4.90311276 36.13453929 3.17138672 36.13037109 C0.51133518 36.12502279 -2.1485475 36.13031612 -4.80859375 36.13671875 C-6.48697954 36.13605797 -8.16536523 36.1347768 -9.84375 36.1328125 C-10.64478149 36.13483673 -11.44581299 36.13686096 -12.27111816 36.13894653 C-17.88504921 36.11495079 -17.88504921 36.11495079 -19 35 C-19.29844115 33.29534461 -19.53891758 31.58045829 -19.75390625 29.86328125 C-19.88603516 28.81076172 -20.01816406 27.75824219 -20.15429688 26.67382812 C-20.28900391 25.56458984 -20.42371094 24.45535156 -20.5625 23.3125 C-20.70107422 22.22259766 -20.83964844 21.13269531 -20.98242188 20.00976562 C-21.605991 14.96284905 -22.0749535 10.0925952 -22 5 C-19 5 -19 5 -17.39453125 6.4609375 C-16.87246094 7.09257812 -16.35039063 7.72421875 -15.8125 8.375 C-15.28269531 9.00148437 -14.75289062 9.62796875 -14.20703125 10.2734375 C-13 12 -13 12 -13 14 C-11.14993285 13.99317898 -11.14993285 13.99317898 -9 13 C-7.26326118 10.83482726 -5.74910911 8.75452694 -4.25 6.4375 C-3.83878906 5.82197266 -3.42757812 5.20644531 -3.00390625 4.57226562 C-1.99236489 3.05495359 -0.99480211 1.52833914 0 0 Z " fill="#FFFCFC" transform="translate(960,121)"/>
<path d="M0 0 C3.10622639 0.93772872 4.42197915 1.4422365 6.3125 4 C6.828125 3.319375 7.34375 2.63875 7.875 1.9375 C10.3125 0 10.3125 0 13.75 -0.125 C18.45221336 1.35990948 19.56882796 2.96518817 22.3125 7 C24.40894281 13.28932843 24.06774457 19.97873946 21.625 26.125 C20.15336221 29.05256414 19.74472744 29.80446854 16.6875 31.1875 C14.3125 31 14.3125 31 12.3125 29 C12.1171875 26.1796875 12.1171875 26.1796875 12.1875 22.875 C12.20554687 21.77929688 12.22359375 20.68359375 12.2421875 19.5546875 C12.26539063 18.71164063 12.28859375 17.86859375 12.3125 17 C11.9825 17 11.6525 17 11.3125 17 C11.26351563 17.75925781 11.21453125 18.51851562 11.1640625 19.30078125 C11.08929687 20.29464844 11.01453125 21.28851563 10.9375 22.3125 C10.86789062 23.29863281 10.79828125 24.28476563 10.7265625 25.30078125 C10.3125 28 10.3125 28 8.3125 31 C6.3325 30.67 4.3525 30.34 2.3125 30 C1.26273036 26.85069107 1.21118405 24.61185544 1.25 21.3125 C1.25902344 20.31863281 1.26804687 19.32476562 1.27734375 18.30078125 C1.28894531 17.54152344 1.30054688 16.78226563 1.3125 16 C0.6525 16.33 -0.0075 16.66 -0.6875 17 C-0.66429687 17.84304687 -0.64109375 18.68609375 -0.6171875 19.5546875 C-0.59011719 21.19824219 -0.59011719 21.19824219 -0.5625 22.875 C-0.53929687 23.96554688 -0.51609375 25.05609375 -0.4921875 26.1796875 C-0.6875 29 -0.6875 29 -2.6875 31 C-5.125 30.9375 -5.125 30.9375 -7.6875 30 C-11.90202266 24.43080935 -12.10947828 18.74024762 -11.6875 12 C-10.98160623 7.76463738 -10.06640717 4.97645923 -7 2 C-3.6875 0 -3.6875 0 0 0 Z " fill="#FFFCFB" transform="translate(1025.6875,227)"/>
<path d="M0 0 C4.23478834 1.99754167 7.12796231 4.52690831 9.30859375 8.7421875 C11.20317934 14.92902631 10.71108619 21.6297127 8.875 27.75 C7 30 7 30 3.9375 31 C2.968125 31 1.99875 31 1 31 C0.34 30.34 -0.32 29.68 -1 29 C-1 27.68 -1 26.36 -1 25 C-2.98 25 -4.96 25 -7 25 C-7.33 26.65 -7.66 28.3 -8 30 C-13.45200373 31.33271202 -13.45200373 31.33271202 -15.75 29.9375 C-18.91235879 25.03584387 -19.80814049 19.73779749 -19 14 C-17.65544256 8.92735148 -16.09625606 5.07076173 -12.3125 1.375 C-8.02142319 -0.4062017 -4.57741179 -0.79714352 0 0 Z " fill="#FFFCFC" transform="translate(919,227)"/>
<path d="M0 0 C5.15075357 1.78295316 7.59985587 4.1073985 10 9 C10.99442303 14.59781953 9.55148594 18.00334004 7 23 C6.92353835 25.3320802 6.90856701 27.66845878 7 30 C6 31 6 31 3.125 31.25 C0 31 0 31 -1.875 29.625 C-3 28 -3 28 -3 26 C-3.66 26 -4.32 26 -5 26 C-5.6496875 27.2375 -5.6496875 27.2375 -6.3125 28.5 C-8 31 -8 31 -10.4375 31.6875 C-13 31 -13 31 -15.12890625 28.42578125 C-17.29635 24.45741347 -17.53653698 21.99404883 -17.5 17.5 C-17.51546875 15.59734375 -17.51546875 15.59734375 -17.53125 13.65625 C-16.76869794 8.40809755 -14.32812673 5.40191155 -10.75 1.625 C-7.12609901 -0.51639604 -4.05722775 -0.64564921 0 0 Z " fill="#FFFCFC" transform="translate(934,182)"/>
<path d="M0 0 C0.71220703 -0.020625 1.42441406 -0.04125 2.15820312 -0.0625 C6.71325514 -0.09620991 9.52594086 0.5164195 13.1875 3.25 C13.5175 2.26 13.8475 1.27 14.1875 0.25 C16.5625 0.0625 16.5625 0.0625 19.1875 0.25 C21.3394437 3.47791555 21.38836443 4.53400809 21.1875 8.25 C22.8375 8.25 24.4875 8.25 26.1875 8.25 C26.14625 7.30125 26.105 6.3525 26.0625 5.375 C26.1875 2.25 26.1875 2.25 28.1875 0.25 C30.75 0.5 30.75 0.5 33.1875 1.25 C34.7595124 4.39402481 34.37196744 7.73947397 34.375 11.1875 C34.38724609 11.91646484 34.39949219 12.64542969 34.41210938 13.39648438 C34.42262685 17.2213391 34.35845624 18.99356564 32.1875 22.25 C27.3125 21.375 27.3125 21.375 26.1875 20.25 C26.14669217 18.25041636 26.14495644 16.24954746 26.1875 14.25 C24.2075 14.25 22.2275 14.25 20.1875 14.25 C20.22875 15.19875 20.27 16.1475 20.3125 17.125 C20.1875 20.25 20.1875 20.25 18.1875 22.25 C16.1875 22.0625 16.1875 22.0625 14.1875 21.25 C11.99755752 17.96508627 11.83472661 16.41904361 11.5625 12.5625 C11.48773437 11.56863281 11.41296875 10.57476562 11.3359375 9.55078125 C11.28695313 8.79152344 11.23796875 8.03226563 11.1875 7.25 C8.8775 7.58 6.5675 7.91 4.1875 8.25 C4.21070313 9.00925781 4.23390625 9.76851562 4.2578125 10.55078125 C4.28488281 12.04158203 4.28488281 12.04158203 4.3125 13.5625 C4.33570313 14.54863281 4.35890625 15.53476563 4.3828125 16.55078125 C4.1875 19.25 4.1875 19.25 2.1875 22.25 C-0.25 21.875 -0.25 21.875 -2.8125 21.25 C-4.13479189 18.60541621 -3.90927194 16.57238699 -3.875 13.625 C-3.86597656 12.62210938 -3.85695313 11.61921875 -3.84765625 10.5859375 C-3.83025391 9.42964844 -3.83025391 9.42964844 -3.8125 8.25 C-4.59625 8.29125 -5.38 8.3325 -6.1875 8.375 C-8.8125 8.25 -8.8125 8.25 -10.8125 6.25 C-10.5625 3.6875 -10.5625 3.6875 -9.8125 1.25 C-6.69863918 -0.30693041 -3.41505068 0.02432805 0 0 Z " fill="#FFFBFA" transform="translate(1453.8125,200.75)"/>
<path d="M0 0 C3.3792573 2.03005291 6.22397384 4.44794768 8 8 C8.58429496 13.61822073 8.37616323 18.27337148 5 23 C1.68829219 25.20780521 -0.19317757 26.0316401 -4.1875 25.875 C-5.5796875 25.936875 -5.5796875 25.936875 -7 26 C-8.03013277 27.64821244 -9.03114628 29.31503702 -10 31 C-12.5 31.625 -12.5 31.625 -15 31 C-19.25825046 25.37302618 -19.55440189 19.80402318 -19 13 C-18.03525696 8.54091208 -16.76579653 5.7284406 -13.4375 2.5625 C-8.95543992 -0.31061543 -5.28300737 -0.93939283 0 0 Z " fill="#FFFBFB" transform="translate(881,182)"/>
<path d="M0 0 C3.4285785 2.02008139 6.20847086 4.41694171 8 8 C8.57717357 12.73093088 8.43416625 16.14717343 6.25 20.4375 C2.96774194 24.17562724 2.96774194 24.17562724 0 25 C-2.69087876 25.14489347 -5.30035311 25.08998823 -8 25 C-8.33 26.65 -8.66 28.3 -9 30 C-10.98 30.33 -12.96 30.66 -15 31 C-18.83560713 26.92466742 -19.3561415 23.71150497 -19.5 18.125 C-19.28069901 10.96368828 -18.14963784 5.96436503 -12.875 1 C-8.50944903 -0.51845251 -4.55423026 -0.8995136 0 0 Z " fill="#FFFBFB" transform="translate(864,227)"/>
<path d="M0 0 C3 0.4375 3 0.4375 4.67578125 1.609375 C6.53070911 4.17016036 6.29773624 6.00163994 6.1875 9.125 C6.16042969 10.11886719 6.13335938 11.11273438 6.10546875 12.13671875 C6.07066406 12.89597656 6.03585937 13.65523437 6 14.4375 C7.65 14.4375 9.3 14.4375 11 14.4375 C10.97679687 13.59445313 10.95359375 12.75140625 10.9296875 11.8828125 C10.91164063 10.78710938 10.89359375 9.69140625 10.875 8.5625 C10.85179687 7.47195312 10.82859375 6.38140625 10.8046875 5.2578125 C11 2.4375 11 2.4375 13 0.4375 C15.875 0 15.875 0 19 0.4375 C21.76038417 2.61675066 22.83006785 4.28998068 23.34765625 7.78515625 C23.52827754 12.99176119 23.16104866 17.11740017 20 21.4375 C18.989375 21.9325 17.97875 22.4275 16.9375 22.9375 C13.70976099 24.1875746 13.70976099 24.1875746 12.6875 27.5625 C12.460625 28.51125 12.23375 29.46 12 30.4375 C11.67 30.7675 11.34 31.0975 11 31.4375 C8.66055264 31.15019945 6.3260857 30.81813221 4 30.4375 C3.79375 29.53 3.5875 28.6225 3.375 27.6875 C1.66498724 23.64565167 -0.34376635 22.72264603 -4 20.4375 C-6.18714083 17.17507588 -6.29798419 14.30838393 -6.3125 10.4375 C-6.32925781 9.40625 -6.34601562 8.375 -6.36328125 7.3125 C-5.79746257 2.83462312 -4.55544693 0.66433601 0 0 Z " fill="#FFFCFC" transform="translate(937,226.5625)"/>
<path d="M0 0 C3.0625 1.1875 3.0625 1.1875 5 3 C6 5.5 6 5.5 6 8 C5.0625 9.75 5.0625 9.75 3 11 C0.33600032 11.50183561 -2.29622518 11.73834437 -5 12 C-5.33 12.33 -5.66 12.66 -6 13 C-5.37351562 13.04898438 -4.74703125 13.09796875 -4.1015625 13.1484375 C-2.87566406 13.26058594 -2.87566406 13.26058594 -1.625 13.375 C-0.81289063 13.44460937 -0.00078125 13.51421875 0.8359375 13.5859375 C3 14 3 14 5 16 C4.625 18.625 4.625 18.625 4 21 C0.7 21 -2.6 21 -6 21 C-6 21.66 -6 22.32 -6 23 C-4.95199219 23.03867188 -4.95199219 23.03867188 -3.8828125 23.078125 C-2.97273437 23.13484375 -2.06265625 23.1915625 -1.125 23.25 C0.23238281 23.31960937 0.23238281 23.31960937 1.6171875 23.390625 C4 24 4 24 5.3203125 26.046875 C5.54460938 26.69140625 5.76890625 27.3359375 6 28 C4.13548759 30.48382042 3.20480946 30.96964773 0.07421875 31.43359375 C-9.00938053 31.4440708 -9.00938053 31.4440708 -13.625 29.375 C-17.68634198 25.31365802 -19.16863448 21.81053468 -19.5 16.125 C-19.33844331 10.76939586 -17.51179894 7.00160247 -14 3 C-9.68368388 -0.93626313 -5.58400266 -0.65959902 0 0 Z " fill="#FFFBFB" transform="translate(990,182)"/>
<path d="M0 0 C3.8026029 2.0050088 5.61790841 3.42686262 8 7 C8.25 10.5625 8.25 10.5625 8 14 C7.34 14.66 6.68 15.32 6 16 C2.70285207 15.67028521 1.3773161 15.3773161 -1 13 C-4.04182893 12.74994614 -4.04182893 12.74994614 -7 13 C-8.33648017 14.11101184 -8.33648017 14.11101184 -8.125 16.9375 C-8.21325664 19.91545728 -8.21325664 19.91545728 -7 22 C-3.26512223 21.5020163 -1.18762365 21.12508244 2 19 C4.6875 19.375 4.6875 19.375 7 20 C7.33074549 23.63820044 7.48805542 25.3773086 5.1875 28.3125 C0.67097272 31.79667819 -4.53086801 31.6133606 -10 31 C-14.55059894 28.76606961 -16.75133242 26.48448564 -19 22 C-19.82118478 16.50324061 -19.72530457 11.56219446 -17.375 6.5 C-12.09432923 0.94139919 -7.62597231 -1.37785904 0 0 Z " fill="#FFFBFA" transform="translate(1017,182)"/>
<path d="M0 0 C1.75 1.1953125 1.75 1.1953125 2.625 4.6953125 C2.66625 5.8503125 2.7075 7.0053125 2.75 8.1953125 C-0.04790503 10.99321753 -2.42979846 10.6068196 -6.25390625 10.8515625 C-7.24197266 11.02171875 -7.24197266 11.02171875 -8.25 11.1953125 C-8.58 11.8553125 -8.91 12.5153125 -9.25 13.1953125 C-8.63511719 13.17210937 -8.02023437 13.14890625 -7.38671875 13.125 C-6.57847656 13.10695312 -5.77023437 13.08890625 -4.9375 13.0703125 C-4.13699219 13.04710937 -3.33648438 13.02390625 -2.51171875 13 C-0.25 13.1953125 -0.25 13.1953125 2.75 15.1953125 C1.875 19.0703125 1.875 19.0703125 0.75 20.1953125 C-0.76469448 20.42724115 -2.28754562 20.60746488 -3.8125 20.7578125 C-5.05193359 20.88349609 -5.05193359 20.88349609 -6.31640625 21.01171875 C-6.95449219 21.07230469 -7.59257813 21.13289063 -8.25 21.1953125 C-6.66727399 22.77803851 -4.86965997 22.54266997 -2.6875 22.7578125 C-1.86121094 22.84160156 -1.03492188 22.92539063 -0.18359375 23.01171875 C0.77353516 23.10259766 0.77353516 23.10259766 1.75 23.1953125 C2.08 24.8453125 2.41 26.4953125 2.75 28.1953125 C-1.7363538 31.18621504 -5.99129207 30.65802004 -11.25 30.1953125 C-15.21675475 29.34631283 -17.65263153 27.96611052 -20.1875 24.6953125 C-22.0110211 18.68841947 -22.28979016 12.23675674 -20.125 6.2578125 C-15.58300894 -1.1607729 -8.02718712 -2.87083428 0 0 Z " fill="#FFFCFC" transform="translate(912.25,182.8046875)"/>
<path d="M0 0 C2.37890625 1.8671875 2.37890625 1.8671875 4 4 C3.7 8.3 3.7 8.3 2 10 C0.0048273 10.25744164 -1.99112677 10.51199834 -3.9921875 10.71875 C-6.20138785 10.9662595 -6.20138785 10.9662595 -9 12 C-9 12.66 -9 13.32 -9 14 C-5.37 14 -1.74 14 2 14 C2.33 15.65 2.66 17.3 3 19 C-0.00617269 22.00617269 -2.82381598 21.59585316 -7 22 C-5.41727399 23.58272601 -3.61965997 23.34735747 -1.4375 23.5625 C-0.61121094 23.64628906 0.21507812 23.73007813 1.06640625 23.81640625 C2.02353516 23.90728516 2.02353516 23.90728516 3 24 C3.33 25.32 3.66 26.64 4 28 C0.01160489 31.50382374 -3.01101872 31.56294325 -8.16796875 31.41796875 C-12.60079468 30.76374479 -15.72345818 29.01676485 -19 26 C-21.94444555 21.7060169 -21.50950255 16.0303268 -21 11 C-19.59721412 6.86957491 -17.50164263 3.63430749 -14.01171875 0.91796875 C-9.6739646 -1.0613948 -4.60365705 -0.9297079 0 0 Z " fill="#FFFBFB" transform="translate(1071,227)"/>
<path d="M0 0 C1.10794922 -0.0309375 1.10794922 -0.0309375 2.23828125 -0.0625 C7.46681639 -0.09938561 11.1573649 0.68265146 15.75 3.25 C16.6875 6.4375 16.6875 6.4375 16.75 9.25 C13.54663178 12.08374881 10.96912747 12.7705537 6.75 13.25 C6.80220703 14.44496094 6.80220703 14.44496094 6.85546875 15.6640625 C7.12434095 26.18848858 7.12434095 26.18848858 3.75 31.25 C0.875 31.4375 0.875 31.4375 -2.25 31.25 C-4.77775351 27.45836973 -4.47443035 24.44125969 -4.375 20.0625 C-4.36597656 19.31291016 -4.35695313 18.56332031 -4.34765625 17.79101562 C-4.32412578 15.94387346 -4.28825561 14.09689588 -4.25 12.25 C-6.168125 12.28673828 -6.168125 12.28673828 -8.125 12.32421875 C-12 12.3984375 -12 12.3984375 -14.25 11.0625 C-15.63323858 8.55538007 -15.74315303 7.0680173 -15.25 4.25 C-10.78712 -0.05898758 -5.88664994 0.0402506 0 0 Z " fill="#FFFAF9" transform="translate(1041.25,181.75)"/>
<path d="M0 0 C1.29808594 -0.0103125 2.59617188 -0.020625 3.93359375 -0.03125 C8.14282827 0.58495656 9.81322773 1.25606701 12.5625 4.5 C13.19140625 7.99609375 13.19140625 7.99609375 13.125 11.9375 C13.12628906 13.23558594 13.12757813 14.53367188 13.12890625 15.87109375 C12.47180648 20.08106397 11.83779237 21.76886222 8.5625 24.5 C5.64195766 24.95812429 3.394824 25.1146465 0.5 25 C-0.57991211 25.00386719 -0.57991211 25.00386719 -1.68164062 25.0078125 C-4.70805112 24.95161175 -6.87897137 24.90620264 -9.37109375 23.09375 C-11.75824948 19.52613264 -11.69072887 16.29768726 -11.75 12.125 C-11.77900391 11.45210937 -11.80800781 10.77921875 -11.83789062 10.0859375 C-11.87937039 6.84413396 -11.63478101 4.81029626 -9.8828125 2.0546875 C-6.49447678 -0.09955789 -3.99121324 -0.0316449 0 0 Z " fill="#FF9E93" transform="translate(238.4375,232.5)"/>
<path d="M0 0 C0.84626953 -0.020625 1.69253906 -0.04125 2.56445312 -0.0625 C7.41756284 -0.09290319 10.5970525 0.128097 14.5625 3.25 C15.5625 4.25 15.5625 4.25 15.875 6.625 C15.5625 9.25 15.5625 9.25 13.9375 11.0625 C10.99770756 12.53239622 8.8100923 12.33452637 5.5625 12.25 C5.58570313 13.13042969 5.60890625 14.01085937 5.6328125 14.91796875 C5.65988281 16.66013672 5.65988281 16.66013672 5.6875 18.4375 C5.71070313 19.58605469 5.73390625 20.73460937 5.7578125 21.91796875 C5.56471308 25.21224481 5.16816073 27.37671238 3.5625 30.25 C0.4375 31.0625 0.4375 31.0625 -2.4375 31.25 C-5.49404046 27.05427648 -5.76893207 24.07107724 -5.625 18.9375 C-5.59792969 17.68324219 -5.57085938 16.42898437 -5.54296875 15.13671875 C-5.50816406 14.18410156 -5.47335937 13.23148438 -5.4375 12.25 C-6.37851562 12.27320313 -7.31953125 12.29640625 -8.2890625 12.3203125 C-11.4375 12.25 -11.4375 12.25 -13.8125 11.125 C-15.4375 9.25 -15.4375 9.25 -15.8125 6.1875 C-15.4375 3.25 -15.4375 3.25 -13.4375 1.25 C-9.05987658 -0.19747258 -4.56195134 0.02766915 0 0 Z " fill="#FFFCFC" transform="translate(977.4375,226.75)"/>
<path d="M0 0 C1.9375 1.9375 1.9375 1.9375 2.25 5.625 C2.146875 6.718125 2.04375 7.81125 1.9375 8.9375 C-0.78351224 10.63813265 -3.04958624 11.10114571 -6.1875 11.375 C-7.46625 11.560625 -8.745 11.74625 -10.0625 11.9375 C-11.0525 13.4225 -11.0525 13.4225 -12.0625 14.9375 C-10.90621094 14.90269531 -10.90621094 14.90269531 -9.7265625 14.8671875 C-8.72367188 14.84914062 -7.72078125 14.83109375 -6.6875 14.8125 C-5.68976562 14.78929687 -4.69203125 14.76609375 -3.6640625 14.7421875 C-1.0625 14.9375 -1.0625 14.9375 0.9375 16.9375 C0.6875 19.5 0.6875 19.5 -0.0625 21.9375 C-2.58725462 23.19987731 -4.37450466 23.03606404 -7.1875 23 C-8.09757813 22.99097656 -9.00765625 22.98195312 -9.9453125 22.97265625 C-10.99332031 22.95525391 -10.99332031 22.95525391 -12.0625 22.9375 C-12.000625 24.113125 -12.000625 24.113125 -11.9375 25.3125 C-12.0625 27.9375 -12.0625 27.9375 -14.0625 29.9375 C-16.5 30.375 -16.5 30.375 -19.0625 29.9375 C-20.8125 27.5625 -20.8125 27.5625 -22.0625 24.9375 C-22.3925 24.2775 -22.7225 23.6175 -23.0625 22.9375 C-23.74456061 15.66964103 -23.84071525 8.8183803 -19.0625 2.9375 C-13.57873465 -2.06323939 -6.79626932 -2.35788936 0 0 Z " fill="#FFFBFA" transform="translate(968.0625,183.0625)"/>
<path d="M0 0 C1.875 1.5 1.875 1.5 3 4 C3.48129629 9.77555551 2.58499184 14.45252855 1 20 C1.75925781 19.96519531 2.51851562 19.93039063 3.30078125 19.89453125 C4.79158203 19.85392578 4.79158203 19.85392578 6.3125 19.8125 C7.29863281 19.77769531 8.28476562 19.74289063 9.30078125 19.70703125 C12 20 12 20 13.859375 21.3203125 C15 23 15 23 14.9375 26.0625 C14 29 14 29 12.33984375 30.15625 C7.42219968 31.92955738 2.12790895 31.64257916 -3 31 C-6.28558166 29.39305188 -8.34342016 27.31315967 -10 24 C-10.23752513 20.88063641 -10.18518682 17.7524207 -10.1875 14.625 C-10.19974609 13.76132813 -10.21199219 12.89765625 -10.22460938 12.0078125 C-10.22654297 11.1725 -10.22847656 10.3371875 -10.23046875 9.4765625 C-10.23663208 8.3330835 -10.23663208 8.3330835 -10.24291992 7.16650391 C-9.96587619 4.69566359 -9.31086798 3.10418949 -8 1 C-5.17116253 -0.41441874 -3.12623255 -0.31900332 0 0 Z " fill="#FFFBFB" transform="translate(884,227)"/>
<path d="M0 0 C0.763125 0.0825 1.52625 0.165 2.3125 0.25 C3.47313604 4.50566547 3.07423392 7.9335078 2.3125 12.25 C2.6425 12.25 2.9725 12.25 3.3125 12.25 C3.36148437 11.62351563 3.41046875 10.99703125 3.4609375 10.3515625 C3.53570313 9.53429687 3.61046875 8.71703125 3.6875 7.875 C3.79191406 6.65683594 3.79191406 6.65683594 3.8984375 5.4140625 C4.3125 3.25 4.3125 3.25 6.3125 1.25 C9.84821429 1.78571429 9.84821429 1.78571429 11.3125 3.25 C11.38455511 4.93608966 11.39636068 6.62500659 11.375 8.3125 C11.36597656 9.23160156 11.35695313 10.15070313 11.34765625 11.09765625 C11.33605469 11.80792969 11.32445312 12.51820313 11.3125 13.25 C12.3025 13.25 13.2925 13.25 14.3125 13.25 C13.9825 12.198125 13.6525 11.14625 13.3125 10.0625 C12.4718668 6.85758594 12.02455289 4.5134006 12.3125 1.25 C13.3125 0.25 13.3125 0.25 15.6875 -0.125 C18.3125 0.25 18.3125 0.25 20.125 2.1875 C21.72311176 6.30894613 21.90709995 9.88167236 21.3125 14.25 C19.68849816 17.88467079 18.65136956 19.02408696 15.3125 21.25 C12.82408417 21.4414166 10.83265022 21.40604507 8.4375 20.6875 C6.08504641 20.06042554 6.08504641 20.06042554 2.8125 20.9375 C-0.6875 21.25 -0.6875 21.25 -3.0625 19.5 C-5.49380784 16.13357376 -5.86441092 13.3628534 -5.9375 9.3125 C-5.96328125 8.45785156 -5.9890625 7.60320312 -6.015625 6.72265625 C-5.48341023 2.7120378 -4.13475824 0.38462867 0 0 Z " fill="#FFFBFB" transform="translate(1405.6875,201.75)"/>
<path d="M0 0 C0.763125 0.0825 1.52625 0.165 2.3125 0.25 C3.47313604 4.50566547 3.07423392 7.9335078 2.3125 12.25 C2.6425 12.25 2.9725 12.25 3.3125 12.25 C3.36148437 11.62351563 3.41046875 10.99703125 3.4609375 10.3515625 C3.53570313 9.53429687 3.61046875 8.71703125 3.6875 7.875 C3.79191406 6.65683594 3.79191406 6.65683594 3.8984375 5.4140625 C4.3125 3.25 4.3125 3.25 6.3125 1.25 C9.84821429 1.78571429 9.84821429 1.78571429 11.3125 3.25 C11.38455511 4.93608966 11.39636068 6.62500659 11.375 8.3125 C11.36597656 9.23160156 11.35695313 10.15070313 11.34765625 11.09765625 C11.33605469 11.80792969 11.32445312 12.51820313 11.3125 13.25 C12.3025 13.25 13.2925 13.25 14.3125 13.25 C13.9825 12.198125 13.6525 11.14625 13.3125 10.0625 C12.4718668 6.85758594 12.02455289 4.5134006 12.3125 1.25 C13.3125 0.25 13.3125 0.25 15.6875 -0.125 C18.3125 0.25 18.3125 0.25 20.125 2.1875 C21.72311176 6.30894613 21.90709995 9.88167236 21.3125 14.25 C19.68849816 17.88467079 18.65136956 19.02408696 15.3125 21.25 C12.82408417 21.4414166 10.83265022 21.40604507 8.4375 20.6875 C6.08504641 20.06042554 6.08504641 20.06042554 2.8125 20.9375 C-0.6875 21.25 -0.6875 21.25 -3.0625 19.5 C-5.49380784 16.13357376 -5.86441092 13.3628534 -5.9375 9.3125 C-5.96328125 8.45785156 -5.9890625 7.60320312 -6.015625 6.72265625 C-5.48341023 2.7120378 -4.13475824 0.38462867 0 0 Z " fill="#FFFBFB" transform="translate(1405.6875,169.75)"/>
<path d="M0 0 C1.423125 0.2475 1.423125 0.2475 2.875 0.5 C3.535 1.49 4.195 2.48 4.875 3.5 C5.266875 3.005 5.65875 2.51 6.0625 2 C7.875 0.5 7.875 0.5 10.3125 0 C12.875 0.5 12.875 0.5 15.125 2.875 C17.96211997 7.13067996 18.40117423 10.43557308 17.875 15.5 C16.625 18.9375 16.625 18.9375 14.875 21.5 C12.75 22.4375 12.75 22.4375 10.875 22.5 C9.875 21.5 9.875 21.5 9.77734375 19.43359375 C9.78894531 18.60988281 9.80054688 17.78617188 9.8125 16.9375 C9.82152344 16.11121094 9.83054687 15.28492188 9.83984375 14.43359375 C9.85144531 13.79550781 9.86304688 13.15742188 9.875 12.5 C9.215 12.5 8.555 12.5 7.875 12.5 C7.875 15.47 7.875 18.44 7.875 21.5 C6.225 21.83 4.575 22.16 2.875 22.5 C1.26774365 19.28548731 1.81751815 16.06387464 1.875 12.5 C1.215 12.5 0.555 12.5 -0.125 12.5 C-0.125 15.47 -0.125 18.44 -0.125 21.5 C-1.445 21.83 -2.765 22.16 -4.125 22.5 C-7.66309742 17.04543314 -7.9778556 11.80538183 -7.125 5.5 C-5.14373905 1.61368044 -4.30964458 0.68954313 0 0 Z " fill="#FFFBFB" transform="translate(1407.125,136.5)"/>
<path d="M0 0 C0.68513672 0.00773438 1.37027344 0.01546875 2.07617188 0.0234375 C2.75744141 0.01570312 3.43871094 0.00796875 4.140625 0 C7.8527663 0.01454316 9.4745656 0.16403332 12.63867188 2.2734375 C12.30867187 3.9234375 11.97867188 5.5734375 11.63867188 7.2734375 C9.98867188 7.6034375 8.33867188 7.9334375 6.63867188 8.2734375 C6.63867188 13.2234375 6.63867188 18.1734375 6.63867188 23.2734375 C7.95867188 23.6034375 9.27867187 23.9334375 10.63867188 24.2734375 C10.96867188 25.9234375 11.29867187 27.5734375 11.63867188 29.2734375 C8.17634693 31.58165413 6.72068871 31.54344739 2.63867188 31.5234375 C1.58679688 31.52859375 0.53492188 31.53375 -0.54882812 31.5390625 C-3.36132812 31.2734375 -3.36132812 31.2734375 -6.36132812 29.2734375 C-6.03132812 27.6234375 -5.70132813 25.9734375 -5.36132812 24.2734375 C-4.37132812 23.9434375 -3.38132812 23.6134375 -2.36132812 23.2734375 C-2.36132812 18.3234375 -2.36132812 13.3734375 -2.36132812 8.2734375 C-3.68132813 7.9434375 -5.00132812 7.6134375 -6.36132812 7.2734375 C-6.98632812 4.8984375 -6.98632812 4.8984375 -7.36132812 2.2734375 C-4.8781341 -0.20975652 -3.39466766 0.01332549 0 0 Z " fill="#FFFBFB" transform="translate(1001.361328125,226.7265625)"/>
<path d="M0 0 C3.4290034 2.04281054 5.9158558 4.09708087 7 8 C6.92002707 13.03829462 6.80642825 15.02815058 3.5625 18.9375 C-0.4596765 22.17486157 -2.81038611 22.51896139 -8 22 C-11.47998516 19.99707521 -13.7068445 17.87946651 -15 14 C-15.37066773 8.99598565 -15.09881835 6.01698676 -12 2 C-7.97297943 -0.68468038 -4.7315637 -0.68187737 0 0 Z " fill="#FFFBFA" transform="translate(1534,137)"/>
<path d="M0 0 C3.12116143 1.68542717 5.39075595 3.7815119 7 7 C7.68128376 13.81283762 7.68128376 13.81283762 5.953125 16.82421875 C3.5928209 19.69129402 1.74119682 21.79495559 -2.0234375 22.23828125 C-2.79945312 22.26277344 -3.57546875 22.28726563 -4.375 22.3125 C-5.53128906 22.36857422 -5.53128906 22.36857422 -6.7109375 22.42578125 C-10.00765775 21.81256878 -11.06879075 20.72539194 -13 18 C-13.49609375 14.43359375 -13.49609375 14.43359375 -13.4375 10.4375 C-13.44458984 9.76525391 -13.45167969 9.09300781 -13.45898438 8.40039062 C-13.42252511 5.5761997 -13.30533251 3.48133628 -11.7734375 1.06640625 C-8.14656026 -1.11451333 -4.05299399 -0.69228158 0 0 Z " fill="#FFFBFA" transform="translate(1484,169)"/>
<path d="M0 0 C3.12116143 1.68542717 5.39075595 3.7815119 7 7 C7.37766377 12.00404498 7.11200434 14.99885156 4 19 C0.97033885 21.73263554 -0.99595101 22.41180135 -5.0625 22.375 C-5.91972656 22.38273437 -6.77695313 22.39046875 -7.66015625 22.3984375 C-10 22 -10 22 -11.78515625 20.9765625 C-13.7141556 17.83806194 -13.43215174 14.56880855 -13.375 11 C-13.38660156 10.27554688 -13.39820313 9.55109375 -13.41015625 8.8046875 C-13.39381092 5.85163043 -13.35916892 3.57834228 -11.77734375 1.03125 C-8.12196288 -1.08967428 -4.05449813 -0.6925385 0 0 Z " fill="#FFFAFA" transform="translate(1688,137)"/>
<path d="M0 0 C3.02508145 1.73602105 5.41790069 3.83580137 7 7 C7.49337839 11.93378393 7.52463704 14.06919235 5.0625 18.4375 C1.60770349 21.3282481 -0.36873132 22.01793518 -4.77734375 22.24609375 C-8.28818692 21.85737122 -10.39191494 20.28207443 -13 18 C-14.84862688 14.30274625 -14.47587094 10.03538558 -14 6 C-10.49254826 0.27116215 -6.6118273 -1.12854937 0 0 Z " fill="#FFFCFC" transform="translate(1527,169)"/>
<path d="M0 0 C2.4375 0.4375 2.4375 0.4375 4.4375 2.4375 C4.6328125 5.2578125 4.6328125 5.2578125 4.5625 8.5625 C4.54445313 9.65820312 4.52640625 10.75390625 4.5078125 11.8828125 C4.48460937 12.72585937 4.46140625 13.56890625 4.4375 14.4375 C5.4275 14.1075 6.4175 13.7775 7.4375 13.4375 C7.49808594 12.58285156 7.55867188 11.72820312 7.62109375 10.84765625 C7.70488281 9.74292969 7.78867188 8.63820312 7.875 7.5 C7.95621094 6.39785156 8.03742188 5.29570312 8.12109375 4.16015625 C8.4375 1.4375 8.4375 1.4375 9.4375 0.4375 C11.8125 0.0625 11.8125 0.0625 14.4375 0.4375 C17.14579144 3.33257016 17.68039642 6.03482262 17.875 9.875 C17.72529469 14.36615919 16.38623465 16.98326798 13.4375 20.4375 C9.42686034 23.11125977 6.152482 23.25785715 1.4375 22.4375 C-1.79819211 19.95909753 -4.32929461 17.36133532 -5.5625 13.4375 C-5.90611508 9.10795003 -5.96809103 6.46215102 -4.375 2.4375 C-2.5625 0.4375 -2.5625 0.4375 0 0 Z " fill="#FFFAF9" transform="translate(1504.5625,200.5625)"/>
<path d="M0 0 C3.21954645 2.53453657 4.70432435 4.11297305 6 8 C6.14252401 9.64176695 6.22026755 11.28982655 6.25 12.9375 C6.27578125 13.79214844 6.3015625 14.64679688 6.328125 15.52734375 C5.93876562 18.46144478 4.93350171 19.80700201 3 22 C1.35 21.67 -0.3 21.34 -2 21 C-2 20.01 -2 19.02 -2 18 C-3.65 18 -5.3 18 -7 18 C-7.33 19.32 -7.66 20.64 -8 22 C-9.65 21.67 -11.3 21.34 -13 21 C-15.25517873 15.22110449 -15.97515335 10.58415638 -13.75 4.6875 C-10.45524178 -0.37230727 -5.86385439 -1.16346317 0 0 Z " fill="#FFFBFA" transform="translate(1443,169)"/>
<path d="M0 0 C3.0625 -0.25 3.0625 -0.25 6 0 C7.81115956 1.81115956 7.38199448 4.61278227 7.5625 7.0625 C7.64628906 8.16722656 7.73007813 9.27195313 7.81640625 10.41015625 C7.87699219 11.26480469 7.93757813 12.11945313 8 13 C8.99 13.33 9.98 13.66 11 14 C10.97679687 13.15695313 10.95359375 12.31390625 10.9296875 11.4453125 C10.91164063 10.34960938 10.89359375 9.25390625 10.875 8.125 C10.85179687 7.03445312 10.82859375 5.94390625 10.8046875 4.8203125 C11 2 11 2 13 0 C15.5 -0.25 15.5 -0.25 18 0 C20.75874035 2.75874035 20.29943408 4.46676471 20.3125 8.3125 C20.32925781 9.44300781 20.34601563 10.57351562 20.36328125 11.73828125 C19.96750274 15.29177652 19.09596097 17.13999415 17 20 C13.9892973 22.34165765 10.71967797 22.4151179 6.96484375 22.32421875 C3.83442451 21.80766846 2.16451646 20.22817871 0 18 C-2.30821663 14.53767506 -2.27000989 13.08201684 -2.25 9 C-2.25515625 7.948125 -2.2603125 6.89625 -2.265625 5.8125 C-2 3 -2 3 0 0 Z " fill="#FFFBFA" transform="translate(1544,137)"/>
<path d="M0 0 C2.8100346 1.79363911 4.50940468 3.01880935 6 6 C6.14833651 8.1423215 6.22127413 10.29024129 6.25 12.4375 C6.27578125 13.59121094 6.3015625 14.74492187 6.328125 15.93359375 C6 19 6 19 4.734375 20.91015625 C3 22 3 22 -1 22 C-1.33 20.68 -1.66 19.36 -2 18 C-3.32 18 -4.64 18 -6 18 C-6.33 19.32 -6.66 20.64 -7 22 C-9.375 21.6875 -9.375 21.6875 -12 21 C-14.97332099 16.54001851 -14.62682975 12.23104347 -14 7 C-11.28999179 0.39115923 -6.82463318 -0.98055074 0 0 Z " fill="#FFFBFB" transform="translate(1440,137)"/>
<path d="M0 0 C4.55555556 0.55555556 4.55555556 0.55555556 6 2 C6.04080783 3.99958364 6.04254356 6.00045254 6 8 C7.65 8 9.3 8 11 8 C11.144375 6.865625 11.28875 5.73125 11.4375 4.5625 C12 1 12 1 13 0 C14.66617115 -0.04063832 16.33388095 -0.042721 18 0 C20.27812641 3.63048034 20.29906242 6.77164044 20.3125 11 C20.32925781 12.216875 20.34601563 13.43375 20.36328125 14.6875 C19.98279195 18.15690777 19.362488 19.50660897 17 22 C15.35 21.67 13.7 21.34 12 21 C11.67 18.69 11.34 16.38 11 14 C9.35 14 7.7 14 6 14 C5.67 16.31 5.34 18.62 5 21 C3.35 21.33 1.7 21.66 0 22 C-2.57528248 18.13707629 -2.29454471 14.91053122 -2.25 10.4375 C-2.25773437 9.65697266 -2.26546875 8.87644531 -2.2734375 8.07226562 C-2.25335498 2.25335498 -2.25335498 2.25335498 0 0 Z " fill="#FFFAFA" transform="translate(1620,137)"/>
<path d="M0 0 C2.5625 1.0625 2.5625 1.0625 4 3 C4.25 6.4375 4.25 6.4375 4 10 C3.93526669 13.76559462 3.93526669 13.76559462 4.25 16.5625 C4 19 4 19 2.5625 20.8125 C-1.28291409 22.59452117 -4.83701528 22.69012046 -9 22 C-11.87029869 20.20606332 -13.49131638 19.01736724 -15 16 C-15.53118252 11.08003072 -15.75105553 7.22672403 -13.125 2.9375 C-9.09390329 -0.73791171 -5.24707103 -0.49395162 0 0 Z " fill="#FFF3F2" transform="translate(1600,169)"/>
<path d="M0 0 C2.5625 1.0625 2.5625 1.0625 4 3 C4.25 6.4375 4.25 6.4375 4 10 C3.93526669 13.76559462 3.93526669 13.76559462 4.25 16.5625 C4 19 4 19 2.5625 20.8125 C-1.28792679 22.59684412 -4.83785032 22.81610778 -9 22 C-12.21840301 19.45209761 -14.73534937 17.20831431 -15.23828125 13.01171875 C-15.3713075 8.84589668 -15.38831668 6.62130669 -13.125 3 C-9.12867308 -0.76124887 -5.26799601 -0.49592147 0 0 Z " fill="#FFF3F2" transform="translate(1550,169)"/>
<path d="M0 0 C2.9375 1.5625 2.9375 1.5625 5 4 C6.39935116 9.03766419 5.87646952 12.20457789 4 17 C3.63893903 18.66088045 3.29537827 20.32618981 3 22 C-0.82097239 21.46930939 -3.06171403 20.50298434 -6 18 C-6.33 19.32 -6.66 20.64 -7 22 C-9.375 21.75 -9.375 21.75 -12 21 C-14.82728465 16.68161317 -14.65815785 11.97535993 -14 7 C-11.18791572 0.38099031 -6.88361572 -0.92309023 0 0 Z " fill="#FFFAFA" transform="translate(1464,169)"/>
<path d="M0 0 C2.9375 1.5625 2.9375 1.5625 5 4 C6.39935116 9.03766419 5.87646952 12.20457789 4 17 C3.63893903 18.66088045 3.29537827 20.32618981 3 22 C-0.82097239 21.46930939 -3.06171403 20.50298434 -6 18 C-6.33 19.32 -6.66 20.64 -7 22 C-9.375 21.75 -9.375 21.75 -12 21 C-14.66205307 16.87518057 -14.54318156 12.7487236 -14 8 C-11.29558314 0.91700345 -7.49094296 -1.15357601 0 0 Z " fill="#FFFAFA" transform="translate(1619,169)"/>
<path d="M0 0 C3 2 3 2 5 5 C5.69932296 9.10648947 5.1374252 13.01901181 4 17 C4 18.32 4 19.64 4 21 C1.25 21.75 1.25 21.75 -2 22 C-4.375 20.0625 -4.375 20.0625 -6 18 C-6.33 19.32 -6.66 20.64 -7 22 C-9.375 21.6875 -9.375 21.6875 -12 21 C-14.84430358 16.73354463 -14.38418899 13.00246079 -14 8 C-13.2206014 4.9473555 -12.45507803 3.50758703 -10.375 1.1875 C-6.91730021 -0.54134989 -3.7310558 -0.76837585 0 0 Z " fill="#FFFBFB" transform="translate(1506,169)"/>
<path d="M0 0 C2.625 0.375 2.625 0.375 5 1 C5.33 3.31 5.66 5.62 6 8 C7.65 8 9.3 8 11 8 C10.95875 7.05125 10.9175 6.1025 10.875 5.125 C11 2 11 2 13 0 C17.55555556 0.55555556 17.55555556 0.55555556 19 2 C19.12667764 4.99018161 19.18520838 7.94694108 19.1875 10.9375 C19.19974609 11.77474609 19.21199219 12.61199219 19.22460938 13.47460938 C19.22750977 14.67633789 19.22750977 14.67633789 19.23046875 15.90234375 C19.23457764 16.63960693 19.23868652 17.37687012 19.24291992 18.13647461 C19 20 19 20 17 22 C14.375 21.625 14.375 21.625 12 21 C11.67 18.69 11.34 16.38 11 14 C9.35 14 7.7 14 6 14 C5.67 16.31 5.34 18.62 5 21 C2.625 21.625 2.625 21.625 0 22 C-2.36568222 19.63431778 -2.25571704 19.14767774 -2.265625 15.9375 C-2.26820312 15.14085937 -2.27078125 14.34421875 -2.2734375 13.5234375 C-2.26570313 12.69070312 -2.25796875 11.85796875 -2.25 11 C-2.25773437 10.16726562 -2.26546875 9.33453125 -2.2734375 8.4765625 C-2.27085938 7.67992187 -2.26828125 6.88328125 -2.265625 6.0625 C-2.26336914 5.33160156 -2.26111328 4.60070312 -2.25878906 3.84765625 C-2 2 -2 2 0 0 Z " fill="#FFFCFC" transform="translate(1663,169)"/>
<path d="M0 0 C3 2.0625 3 2.0625 5 5 C5.74121411 10.50616193 4.3515721 15.67818487 3 21 C1.35 21.33 -0.3 21.66 -2 22 C-2.66 20.68 -3.32 19.36 -4 18 C-4.99 18 -5.98 18 -7 18 C-7.33 19.32 -7.66 20.64 -8 22 C-9.65 21.67 -11.3 21.34 -13 21 C-14.06385483 17.80843552 -14.16677982 15.41502524 -14.1875 12.0625 C-14.20167969 11.02222656 -14.21585938 9.98195312 -14.23046875 8.91015625 C-14.00164035 6.02071289 -13.54985232 4.41643641 -12 2 C-8.53534543 -0.6651189 -4.18212699 -0.7950182 0 0 Z " fill="#FFFCFB" transform="translate(1580,137)"/>
<path d="M0 0 C3 2.0625 3 2.0625 5 5 C5.74121411 10.50616193 4.3515721 15.67818487 3 21 C1.35 21.33 -0.3 21.66 -2 22 C-2.66 20.68 -3.32 19.36 -4 18 C-4.99 18 -5.98 18 -7 18 C-7.33 19.32 -7.66 20.64 -8 22 C-9.65 21.67 -11.3 21.34 -13 21 C-14.6323191 16.10304271 -14.51721485 11.11008267 -14 6 C-10.59138304 0.20535116 -6.58307931 -1.09508203 0 0 Z " fill="#FFFCFC" transform="translate(1739,169)"/>
<path d="M0 0 C0.87269531 -0.02578125 1.74539063 -0.0515625 2.64453125 -0.078125 C5.62654377 0.30665081 6.9646114 1.28100777 9.1875 3.25 C8.8575 4.9 8.5275 6.55 8.1875 8.25 C4.78187148 9.02842938 1.67984244 9.34978121 -1.8125 9.25 C-2.81467064 12.83327753 -2.81467064 12.83327753 -1.8125 16.25 C-0.4925 16.25 0.8275 16.25 2.1875 16.25 C1.1975 15.92 0.2075 15.59 -0.8125 15.25 C-0.4825 13.6 -0.1525 11.95 0.1875 10.25 C5.5695598 9.89119601 5.5695598 9.89119601 8.125 11.375 C9.1875 13.25 9.1875 13.25 9.1875 16.25 C8.1875 19.25 8.1875 19.25 6.0625 21.125 C2.44573444 22.54025609 0.04843024 22.72414933 -3.8125 22.25 C-9.49671053 19.19736842 -9.49671053 19.19736842 -10.8125 15.25 C-11.21406452 12.18663635 -11.3109547 9.30504492 -10.8125 6.25 C-8.375 3.25 -8.375 3.25 -5.8125 1.25 C-4.16400947 -0.39849053 -2.26203365 0.0397429 0 0 Z " fill="#FFFAF9" transform="translate(1649.8125,168.75)"/>
<path d="M0 0 C2.625 0.375 2.625 0.375 5 1 C5.33 2.65 5.66 4.3 6 6 C7.65 4.02 9.3 2.04 11 0 C12.65 0.33 14.3 0.66 16 1 C16.75 3.25 16.75 3.25 17 6 C15.1875 8.3125 15.1875 8.3125 13 10 C12.34 10 11.68 10 11 10 C11 10.66 11 11.32 11 12 C11.928125 12.433125 11.928125 12.433125 12.875 12.875 C15 14 15 14 17 16 C16.625 18.625 16.625 18.625 16 21 C13.75 21.75 13.75 21.75 11 22 C8.71032629 20.15554062 7.31318776 18.62637553 6 16 C5.7525 16.804375 5.505 17.60875 5.25 18.4375 C4 21 4 21 2 21.9375 C1.34 21.958125 0.68 21.97875 0 22 C-2.36568222 19.63431778 -2.25571704 19.14767774 -2.265625 15.9375 C-2.26820312 15.14085937 -2.27078125 14.34421875 -2.2734375 13.5234375 C-2.26570313 12.69070312 -2.25796875 11.85796875 -2.25 11 C-2.25773437 10.16726562 -2.26546875 9.33453125 -2.2734375 8.4765625 C-2.27085938 7.67992187 -2.26828125 6.88328125 -2.265625 6.0625 C-2.26336914 5.33160156 -2.26111328 4.60070312 -2.25878906 3.84765625 C-2 2 -2 2 0 0 Z " fill="#FFFBFB" transform="translate(1450,137)"/>
<path d="M0 0 C2.4375 0.1875 2.4375 0.1875 3.4375 1.1875 C3.50929964 2.70678038 3.52142007 4.22917482 3.5 5.75 C3.49097656 6.57628906 3.48195313 7.40257812 3.47265625 8.25390625 C3.46105469 8.89199219 3.44945312 9.53007812 3.4375 10.1875 C4.7575 10.1875 6.0775 10.1875 7.4375 10.1875 C7.42589844 9.54941406 7.41429687 8.91132813 7.40234375 8.25390625 C7.39332031 7.42761719 7.38429688 6.60132813 7.375 5.75 C7.36339844 4.92628906 7.35179687 4.10257813 7.33984375 3.25390625 C7.4375 1.1875 7.4375 1.1875 8.4375 0.1875 C10.8125 -0.125 10.8125 -0.125 13.4375 0.1875 C16.14788434 2.52403823 16.42161144 4.0626613 16.875 7.625 C16.36985165 11.73835087 15.33288484 13.29211516 12.4375 16.1875 C11.7775 16.5175 11.1175 16.8475 10.4375 17.1875 C9.3965934 18.82892963 8.39245674 20.49462215 7.4375 22.1875 C5.0625 21.9375 5.0625 21.9375 2.4375 21.1875 C1.4375 19.4375 1.4375 19.4375 0.4375 17.1875 C-0.42875 16.48625 -1.295 15.785 -2.1875 15.0625 C-5.24954615 11.35581256 -5.05238951 9.05551792 -4.93359375 4.39453125 C-4.37194326 1.05418884 -3.34726449 0.24492179 0 0 Z " fill="#FFFBFB" transform="translate(1501.5625,136.8125)"/>
<path d="M0 0 C2.3046875 0.40625 2.3046875 0.40625 5.3046875 2.40625 C4.9746875 4.05625 4.6446875 5.70625 4.3046875 7.40625 C3.1703125 7.53 2.0359375 7.65375 0.8671875 7.78125 C-0.89625 8.090625 -0.89625 8.090625 -2.6953125 8.40625 C-3.0253125 9.06625 -3.3553125 9.72625 -3.6953125 10.40625 C-1.3853125 10.40625 0.9246875 10.40625 3.3046875 10.40625 C3.6346875 11.72625 3.9646875 13.04625 4.3046875 14.40625 C2.3246875 15.06625 0.3446875 15.72625 -1.6953125 16.40625 C0.2846875 16.73625 2.2646875 17.06625 4.3046875 17.40625 C3.9746875 19.05625 3.6446875 20.70625 3.3046875 22.40625 C-5.6705652 23.03364631 -5.6705652 23.03364631 -9.7578125 20.53125 C-13.13595735 16.82618791 -13.10820794 13.83523803 -13.0234375 8.9609375 C-12.69246684 6.38409452 -12.27065005 4.91590174 -10.8203125 2.78125 C-6.96303819 -0.15027847 -4.71350555 -0.17192118 0 0 Z " fill="#FFFAF9" transform="translate(1568.6953125,168.59375)"/>
<path d="M0 0 C3 1.625 3 1.625 5 4 C5.3125 7.25 5.3125 7.25 5 10 C2.625 10.625 2.625 10.625 0 11 C-0.66 10.34 -1.32 9.68 -2 9 C-4.60280568 9.32041397 -4.60280568 9.32041397 -7 10 C-6.67 11.65 -6.34 13.3 -6 15 C-3.55672764 14.52491926 -1.14910761 14.04141878 1.25 13.375 C1.8275 13.25125 2.405 13.1275 3 13 C4 14 4 14 4.375 16.375 C4 19 4 19 1.9375 20.8125 C-1.74719432 22.30205728 -4.05282563 22.55398938 -8 22 C-10.96922861 20.20650621 -13.42452071 18.15095858 -15 15 C-15.34708476 9.70695745 -15.51351894 6.26641586 -12 2 C-8.53145557 -0.69775678 -4.20914918 -0.66679591 0 0 Z " fill="#FFFAF9" transform="translate(1611,137)"/>
<path d="M0 0 C2.5625 1.1875 2.5625 1.1875 4 3 C4.25 5.6875 4.25 5.6875 4 8 C0.71303767 8.79953138 -0.71023192 9.09658936 -4 8 C-4 8.66 -4 9.32 -4 10 C-2.8553125 10.1546875 -2.8553125 10.1546875 -1.6875 10.3125 C1.249454 11.06381381 2.40238809 11.42606971 4 14 C3.9375 17.0625 3.9375 17.0625 3 20 C0.14617686 22.51136437 -3.44451777 22.35603029 -7.09375 22.25390625 C-9.81869924 21.89095195 -11.21700194 21.0801644 -13 19 C-13 17.68 -13 16.36 -13 15 C-7.25 14.875 -7.25 14.875 -5 16 C-5 15.34 -5 14.68 -5 14 C-5.94875 13.71125 -6.8975 13.4225 -7.875 13.125 C-11 12 -11 12 -13 10 C-13.45409879 6.51857596 -13.39476404 4.65221885 -11.5625 1.625 C-7.77460068 -0.7770825 -4.36686459 -0.65703284 0 0 Z " fill="#FFFAF9" transform="translate(1536,201)"/>
<path d="M0 0 C0.7940625 -0.01417969 1.588125 -0.02835938 2.40625 -0.04296875 C4.5 0.1875 4.5 0.1875 6.5 2.1875 C6.625 4.8125 6.625 4.8125 6.5 7.1875 C4.7984375 7.4040625 4.7984375 7.4040625 3.0625 7.625 C-0.30777201 7.79921478 -0.30777201 7.79921478 -1.5 9.1875 C0.81 9.5175 3.12 9.8475 5.5 10.1875 C5.83 11.5075 6.16 12.8275 6.5 14.1875 C4.19 14.8475 1.88 15.5075 -0.5 16.1875 C1.81 16.5175 4.12 16.8475 6.5 17.1875 C6.5 18.5075 6.5 19.8275 6.5 21.1875 C4.17404054 22.35047973 2.71276769 22.35350691 0.125 22.375 C-0.64585938 22.38917969 -1.41671875 22.40335938 -2.2109375 22.41796875 C-4.81749827 22.15553345 -6.32811477 21.65236727 -8.5 20.1875 C-11.36617289 15.94300829 -11.16970776 11.11463569 -10.5 6.1875 C-7.5807305 1.41935982 -5.45946393 0.04431383 0 0 Z " fill="#FFFBFB" transform="translate(1716.5,168.8125)"/>
<path d="M0 0 C2.20703125 0.40625 2.20703125 0.40625 4.20703125 2.40625 C3.83203125 5.03125 3.83203125 5.03125 3.20703125 7.40625 C0.56703125 7.73625 -2.07296875 8.06625 -4.79296875 8.40625 C-4.79296875 9.06625 -4.79296875 9.72625 -4.79296875 10.40625 C-2.15296875 10.40625 0.48703125 10.40625 3.20703125 10.40625 C3.53703125 11.72625 3.86703125 13.04625 4.20703125 14.40625 C1.89703125 15.06625 -0.41296875 15.72625 -2.79296875 16.40625 C-0.48296875 16.73625 1.82703125 17.06625 4.20703125 17.40625 C4.20703125 18.72625 4.20703125 20.04625 4.20703125 21.40625 C0.76314932 23.12819097 -3.01985699 22.78421284 -6.79296875 22.40625 C-11.33350929 20.32516892 -11.33350929 20.32516892 -12.79296875 17.40625 C-13.36888727 12.37107667 -13.88324457 7.07269373 -10.91796875 2.71875 C-7.04343989 -0.14840136 -4.69743099 -0.169023 0 0 Z " fill="#FFFBFB" transform="translate(1480.79296875,136.59375)"/>
<path d="M0 0 C2.625 1.75 2.625 1.75 4 4 C3.75 6.25 3.75 6.25 3 8 C0.36 8 -2.28 8 -5 8 C-5 8.66 -5 9.32 -5 10 C-3.8553125 10.1546875 -3.8553125 10.1546875 -2.6875 10.3125 C0.249454 11.06381381 1.40238809 11.42606971 3 14 C2.9375 17.0625 2.9375 17.0625 2 20 C-0.42288023 22.05012942 -2.26113383 22.02373944 -5.4375 22.3125 C-9.17703106 21.98447096 -11.00122769 21.18092532 -14 19 C-13.67 17.68 -13.34 16.36 -13 15 C-10.69 15.33 -8.38 15.66 -6 16 C-6 15.34 -6 14.68 -6 14 C-6.94875 13.71125 -7.8975 13.4225 -8.875 13.125 C-12 12 -12 12 -14 10 C-13.87022682 6.43123758 -13.72179807 3.93232251 -11.5 1.0625 C-7.67476141 -0.5632264 -4.08673175 -0.68112196 0 0 Z " fill="#FFFBFA" transform="translate(1723,137)"/>
<path d="M0 0 C1.66015625 1.546875 1.66015625 1.546875 3 3 C1.00316663 10.45159769 -1.42188742 14.61459162 -8 19 C-10.76020996 19.37167184 -13.18852476 19.17850636 -16 19 C-16.66 18.34 -17.32 17.68 -18 17 C-17.01 16.34 -16.02 15.68 -15 15 C-15.7115625 13.9171875 -15.7115625 13.9171875 -16.4375 12.8125 C-18.70954183 8.7228247 -19 5.65696109 -19 1 C-18.29875 1.28875 -17.5975 1.5775 -16.875 1.875 C-13.94547497 3.02133588 -10.99078347 4.02625654 -8 5 C-7.87625 4.195625 -7.7525 3.39125 -7.625 2.5625 C-7.41875 1.716875 -7.2125 0.87125 -7 0 C-4.26634878 -1.36682561 -2.89333621 -0.84683011 0 0 Z " fill="#FFF9F8" transform="translate(182,236)"/>
<path d="M0 0 C0.71607422 -0.01160156 1.43214844 -0.02320313 2.16992188 -0.03515625 C6.41074173 -0.0115743 8.99699976 0.34951935 12.0625 3.375 C11.1875 7.25 11.1875 7.25 10.0625 8.375 C8.06291636 8.41580783 6.06204746 8.41754356 4.0625 8.375 C4.08570313 9.21804687 4.10890625 10.06109375 4.1328125 10.9296875 C4.15988281 12.57324219 4.15988281 12.57324219 4.1875 14.25 C4.21070313 15.34054688 4.23390625 16.43109375 4.2578125 17.5546875 C4.0625 20.375 4.0625 20.375 2.0625 22.375 C-1.47321429 21.83928571 -1.47321429 21.83928571 -2.9375 20.375 C-3.17113881 18.52608054 -3.35053635 16.67011969 -3.5 14.8125 C-3.58378906 13.80058594 -3.66757813 12.78867188 -3.75390625 11.74609375 C-3.81449219 10.96363281 -3.87507813 10.18117187 -3.9375 9.375 C-5.3915625 9.00375 -5.3915625 9.00375 -6.875 8.625 C-9.9375 7.375 -9.9375 7.375 -11 5.4375 C-10.9375 3.375 -10.9375 3.375 -9.9296875 1.76953125 C-6.84412111 -0.39036522 -3.62670286 -0.05844284 0 0 Z " fill="#FFFDFC" transform="translate(1693.9375,168.625)"/>
<path d="M0 0 C2.375 0.3125 2.375 0.3125 3.375 1.3125 C3.44758946 3.49889453 3.45873783 5.68750389 3.4375 7.875 C3.42847656 9.07253906 3.41945313 10.27007812 3.41015625 11.50390625 C3.39855469 12.43074219 3.38695312 13.35757813 3.375 14.3125 C4.48875 14.27125 5.6025 14.23 6.75 14.1875 C10.375 14.3125 10.375 14.3125 12.375 16.3125 C12.125 18.875 12.125 18.875 11.375 21.3125 C7.6314092 23.1842954 3.45220861 22.83095196 -0.625 22.3125 C-3.75 20.625 -3.75 20.625 -5.625 17.3125 C-6.29999081 12.08462999 -6.95310801 6.62720253 -4.2578125 1.9296875 C-2.625 0.3125 -2.625 0.3125 0 0 Z " fill="#FFFAFA" transform="translate(1661.625,136.6875)"/>
<path d="M0 0 C3.4375 0.875 3.4375 0.875 6.4375 2.875 C6.89125 2.38 7.345 1.885 7.8125 1.375 C9.4375 -0.125 9.4375 -0.125 11.4375 -0.125 C13.89561625 3.56217438 13.74868164 5.51845704 13.4375 9.875 C12.4475 11.36 12.4475 11.36 11.4375 12.875 C9.5 12.5 9.5 12.5 7.4375 11.875 C7.1075 11.215 6.7775 10.555 6.4375 9.875 C5.73625 10.555625 5.035 11.23625 4.3125 11.9375 C1.4375 13.875 1.4375 13.875 -1.6875 13.875 C-4.99851296 12.72334332 -6.0049177 11.9901646 -7.5625 8.875 C-8.14246839 5.5608949 -7.85759872 4.32355005 -6 1.5 C-3.5625 -0.125 -3.5625 -0.125 0 0 Z " fill="#FFF8F7" transform="translate(364.5625,238.125)"/>
<path d="M0 0 C3.96 0 7.92 0 12 0 C12.33 1.32 12.66 2.64 13 4 C12.01 4.66 11.02 5.32 10 6 C9.63583953 8.43693311 9.63583953 8.43693311 9.8125 11.125 C9.83957031 12.03507813 9.86664062 12.94515625 9.89453125 13.8828125 C9.92933594 14.58148438 9.96414063 15.28015625 10 16 C10.66 16.33 11.32 16.66 12 17 C12 18.32 12 19.64 12 21 C9.63386544 22.18306728 8.13219264 22.13354608 5.5 22.125 C4.7059375 22.12757813 3.911875 22.13015625 3.09375 22.1328125 C1 22 1 22 -1 21 C-0.125 17.125 -0.125 17.125 1 16 C1.23287008 14.31816052 1.41264166 12.6287584 1.5625 10.9375 C1.68818359 9.55884766 1.68818359 9.55884766 1.81640625 8.15234375 C1.87699219 7.44207031 1.93757813 6.73179687 2 6 C1.01 5.67 0.02 5.34 -1 5 C-0.67 3.35 -0.34 1.7 0 0 Z " fill="#FFFAF9" transform="translate(1429,201)"/>
<path d="M0 0 C3.96 0 7.92 0 12 0 C12.33 1.65 12.66 3.3 13 5 C11.68 5.33 10.36 5.66 9 6 C9.1135629 7.64666203 9.24117381 9.29236082 9.375 10.9375 C9.44460938 11.85402344 9.51421875 12.77054688 9.5859375 13.71484375 C9.72257812 14.46894531 9.85921875 15.22304687 10 16 C10.66 16.33 11.32 16.66 12 17 C11.67 18.65 11.34 20.3 11 22 C7.7 22 4.4 22 1 22 C0.34 20.68 -0.32 19.36 -1 18 C0.32 17.67 1.64 17.34 3 17 C3 13.37 3 9.74 3 6 C1.68 5.67 0.36 5.34 -1 5 C-0.67 3.35 -0.34 1.7 0 0 Z " fill="#FFFBFB" transform="translate(1626,169)"/>
<path d="M0 0 C3.96 0 7.92 0 12 0 C12.33 1.65 12.66 3.3 13 5 C11.68 5.33 10.36 5.66 9 6 C9.1135629 7.64666203 9.24117381 9.29236082 9.375 10.9375 C9.44460938 11.85402344 9.51421875 12.77054688 9.5859375 13.71484375 C9.72257812 14.46894531 9.85921875 15.22304687 10 16 C10.66 16.33 11.32 16.66 12 17 C11.67 18.65 11.34 20.3 11 22 C7.7 22 4.4 22 1 22 C0.34 20.68 -0.32 19.36 -1 18 C0.32 17.67 1.64 17.34 3 17 C3 13.37 3 9.74 3 6 C1.68 5.67 0.36 5.34 -1 5 C-0.67 3.35 -0.34 1.7 0 0 Z " fill="#FFFBFB" transform="translate(1642,137)"/>
<path d="M0 0 C0.66 0.66 1.32 1.32 2 2 C2.33 1.34 2.66 0.68 3 0 C5.64 0 8.28 0 11 0 C11.33 1.98 11.66 3.96 12 6 C11.34 6 10.68 6 10 6 C10.66 7.65 11.32 9.3 12 11 C10.68 10.34 9.36 9.68 8 9 C8 8.34 8 7.68 8 7 C7.34 7 6.68 7 6 7 C6 8.65 6 10.3 6 12 C5.01 11.67 4.02 11.34 3 11 C2.67 10.34 2.34 9.68 2 9 C1.62875 9.515625 1.2575 10.03125 0.875 10.5625 C-1 12 -1 12 -4.0625 11.875 C-7 11 -7 11 -9 8 C-9.35384949 5.16920408 -9.3920891 3.63169911 -7.875 1.1875 C-5.16554166 -0.52849028 -3.13704316 -0.333728 0 0 Z " fill="#FF9B8F" transform="translate(1705,247)"/>
<path d="M0 0 C1.32 0 2.64 0 4 0 C4.268125 0.61875 4.53625 1.2375 4.8125 1.875 C5.95556848 4.2995233 5.95556848 4.2995233 9 6 C8.67 7.32 8.34 8.64 8 10 C7.01 9.67 6.02 9.34 5 9 C4.97873047 9.99580078 4.97873047 9.99580078 4.95703125 11.01171875 C4.711918 15.54962625 4.43991091 18.34013363 1.875 22.1875 C-1 24 -1 24 -4.625 24.0625 C-8 23 -8 23 -10 21.375 C-11.45635054 17.91616747 -10.91305869 15.58701629 -10 12 C-8.625 10.0625 -8.625 10.0625 -7 9 C-6.01 9 -5.02 9 -4 9 C-4.58803797 12.02419525 -5.22678118 15.01758453 -6 18 C-4.05396726 18.59070014 -4.05396726 18.59070014 -2 19 C-0.48578999 17.48578999 -0.78690144 16.07527232 -0.68359375 13.96484375 C-0.64169922 13.15595703 -0.59980469 12.34707031 -0.55664062 11.51367188 C-0.49766602 10.2384668 -0.49766602 10.2384668 -0.4375 8.9375 C-0.39431641 8.08349609 -0.35113281 7.22949219 -0.30664062 6.34960938 C-0.20023298 4.23327963 -0.09958269 2.11666187 0 0 Z " fill="#FFFBFB" transform="translate(305,233)"/>
<path d="M0 0 C1.29808594 -0.0103125 2.59617188 -0.020625 3.93359375 -0.03125 C8.14282827 0.58495656 9.81322773 1.25606701 12.5625 4.5 C13.19140625 7.99609375 13.19140625 7.99609375 13.125 11.9375 C13.12628906 13.23558594 13.12757813 14.53367188 13.12890625 15.87109375 C12.47180648 20.08106397 11.83779237 21.76886222 8.5625 24.5 C5.64195766 24.95812429 3.394824 25.1146465 0.5 25 C-0.57991211 25.00386719 -0.57991211 25.00386719 -1.68164062 25.0078125 C-4.70805112 24.95161175 -6.87897137 24.90620264 -9.37109375 23.09375 C-11.75824948 19.52613264 -11.69072887 16.29768726 -11.75 12.125 C-11.77900391 11.45210937 -11.80800781 10.77921875 -11.83789062 10.0859375 C-11.87937039 6.84413396 -11.63478101 4.81029626 -9.8828125 2.0546875 C-6.49447678 -0.09955789 -3.99121324 -0.0316449 0 0 Z M-8.3515625 3.5859375 C-10.02774985 6.54036844 -9.83352581 9.1358697 -9.8125 12.5 C-9.82023438 13.7375 -9.82796875 14.975 -9.8359375 16.25 C-9.66216099 19.38939899 -9.66216099 19.38939899 -8.3515625 21.4140625 C-5.39713156 23.09024985 -2.8016303 22.89602581 0.5625 22.875 C1.8 22.88273437 3.0375 22.89046875 4.3125 22.8984375 C7.45189899 22.72466099 7.45189899 22.72466099 9.4765625 21.4140625 C11.15274985 18.45963156 10.95852581 15.8641303 10.9375 12.5 C10.94523437 11.2625 10.95296875 10.025 10.9609375 8.75 C10.78716099 5.61060101 10.78716099 5.61060101 9.4765625 3.5859375 C6.52213156 1.90975015 3.9266303 2.10397419 0.5625 2.125 C-0.675 2.11726562 -1.9125 2.10953125 -3.1875 2.1015625 C-6.32689899 2.27533901 -6.32689899 2.27533901 -8.3515625 3.5859375 Z " fill="#FFF9F8" transform="translate(238.4375,232.5)"/>
<path d="M0 0 C1.875 1.125 1.875 1.125 3 3 C3.39365568 6.14924548 3.52854531 8.11909116 1.875 10.875 C-0.88090884 12.52854531 -2.85075452 12.39365568 -6 12 C-7.875 10.875 -7.875 10.875 -9 9 C-9.39365568 5.85075452 -9.52854531 3.88090884 -7.875 1.125 C-5.11909116 -0.52854531 -3.14924548 -0.39365568 0 0 Z " fill="#FFF6F5" transform="translate(242,239)"/>
<path d="M0 0 C7.3028169 -0.35915493 7.3028169 -0.35915493 10.0625 1.0625 C11.55238061 4.1415866 10.67482518 6.74856958 10 10 C8.02 10.33 6.04 10.66 4 11 C3.67 12.32 3.34 13.64 3 15 C2.01 15 1.02 15 0 15 C0 10.05 0 5.1 0 0 Z " fill="#FFF2F1" transform="translate(230,141)"/>
<path d="M0 0 C0.99 0.66 1.98 1.32 3 2 C3 2.66 3 3.32 3 4 C5.31 4 7.62 4 10 4 C9.505 5.3921875 9.505 5.3921875 9 6.8125 C7.85032996 9.92029291 7.85032996 9.92029291 8 13 C7.2575 12.95875 6.515 12.9175 5.75 12.875 C2.91241048 13.00398134 1.41226062 13.57051222 -1 15 C-1.103125 14.236875 -1.20625 13.47375 -1.3125 12.6875 C-2.04364039 9.82940576 -2.76951913 8.84257115 -5 7 C-4.01 6.34 -3.02 5.68 -2 5 C-0.79549696 2.44816596 -0.79549696 2.44816596 0 0 Z " fill="#FFF6F5" transform="translate(924,135)"/>
<path d="M0 0 C2.4375 0.375 2.4375 0.375 5 1 C7.83967231 1 10.23735711 0.59732819 13 0 C13.33 0.66 13.66 1.32 14 2 C12.68 2.33 11.36 2.66 10 3 C11.32 3.66 12.64 4.32 14 5 C13.67 6.32 13.34 7.64 13 9 C11.865625 8.814375 10.73125 8.62875 9.5625 8.4375 C8.386875 8.293125 7.21125 8.14875 6 8 C5.67 8.33 5.34 8.66 5 9 C2.5625 9.1875 2.5625 9.1875 0 9 C-2 7 -2 7 -2.25 4.5 C-2 2 -2 2 0 0 Z " fill="#FFC0B9" transform="translate(1525,250)"/>
<path d="M0 0 C0.33 0 0.66 0 1 0 C1 1.98 1 3.96 1 6 C3.475 6.99 3.475 6.99 6 8 C6 8.66 6 9.32 6 10 C5.01 10.33 4.02 10.66 3 11 C1.78130071 13.50447516 1.78130071 13.50447516 1 16 C0.01 15.34 -0.98 14.68 -2 14 C-3.9896995 13.60986284 -5.99019869 13.26797351 -8 13 C-7.814375 12.071875 -7.62875 11.14375 -7.4375 10.1875 C-6.75876119 6.98656229 -6.75876119 6.98656229 -8 4 C-6.576875 3.566875 -6.576875 3.566875 -5.125 3.125 C-1.94788422 2.23174891 -1.94788422 2.23174891 0 0 Z " fill="#FFFAFA" transform="translate(994,142)"/>
<path d="M0 0 C6 0 6 0 8.375 1.125 C10 3 10 3 10.4375 6 C10 9 10 9 8.9375 10.875 C5.99772876 12.58196395 3.32129197 12.18799766 0 12 C0 8.04 0 4.08 0 0 Z " fill="#FFE0DC" transform="translate(930,378)"/>
<path d="M0 0 C0.33 0.66 0.66 1.32 1 2 C4.49418263 3.16472754 6.4263938 2.6082734 10 2 C10.66 2.33 11.32 2.66 12 3 C12 5.64 12 8.28 12 11 C10.18757948 11.02687279 8.37504767 11.04633715 6.5625 11.0625 C5.55316406 11.07410156 4.54382813 11.08570313 3.50390625 11.09765625 C1 11 1 11 0 10 C-1.20481928 2.40963855 -1.20481928 2.40963855 0 0 Z " fill="#FF9F93" transform="translate(483,186)"/>
<path d="M0 0 C2.31 0 4.62 0 7 0 C7.33333333 1.66666667 7.66666667 3.33333333 8 5 C8.226875 5.886875 8.45375 6.77375 8.6875 7.6875 C8.790625 8.450625 8.89375 9.21375 9 10 C7 12 7 12 3.375 12.125 C2.26125 12.08375 1.1475 12.0425 0 12 C0 8.04 0 4.08 0 0 Z " fill="#FFE3DF" transform="translate(1723,247)"/>
<path d="M0 0 C0.33 1.32 0.66 2.64 1 4 C0.01 4 -0.98 4 -2 4 C-2 3.34 -2 2.68 -2 2 C-3.65 2 -5.3 2 -7 2 C-7 2.99 -7 3.98 -7 5 C-6.05125 5.12375 -5.1025 5.2475 -4.125 5.375 C-1 6 -1 6 1 8 C0.44444444 12.55555556 0.44444444 12.55555556 -1 14 C-3.33297433 14.04092937 -5.66705225 14.04241723 -8 14 C-8.66 12.68 -9.32 11.36 -10 10 C-7.69 10.33 -5.38 10.66 -3 11 C-3 10.34 -3 9.68 -3 9 C-3.969375 8.5875 -4.93875 8.175 -5.9375 7.75 C-9 6 -9 6 -10.0625 4 C-10 2 -10 2 -9 0.1875 C-5.90521904 -1.6500262 -3.40384837 -0.7064591 0 0 Z " fill="#FFEFED" transform="translate(173,138)"/>
<path d="M0 0 C10.375 0 10.375 0 15 1 C15 4.3 15 7.6 15 11 C14.34 11 13.68 11 13 11 C12.67 8.36 12.34 5.72 12 3 C11.34 3 10.68 3 10 3 C9.67 5.64 9.34 8.28 9 11 C8.01 11 7.02 11 6 11 C6 8.03 6 5.06 6 2 C5.01 2.33 4.02 2.66 3 3 C2.67 5.64 2.34 8.28 2 11 C1.34 11 0.68 11 0 11 C0 7.37 0 3.74 0 0 Z " fill="#FFF5F4" transform="translate(201,141)"/>
<path d="M0 0 C0.33 0.66 0.66 1.32 1 2 C1.66 2.33 2.32 2.66 3 3 C2.34 3 1.68 3 1 3 C1 5.31 1 7.62 1 10 C-2.3 10.33 -5.6 10.66 -9 11 C-9.625 7.625 -9.625 7.625 -10 4 C-9.34 3.34 -8.68 2.68 -8 2 C-6.32706064 2.30027117 -4.66014616 2.63557767 -3 3 C-2.01 2.67 -1.02 2.34 0 2 C0 1.34 0 0.68 0 0 Z " fill="#FFC1BA" transform="translate(507,186)"/>
<path d="M0 0 C0.33 0 0.66 0 1 0 C1 3.96 1 7.92 1 12 C0.01 12 -0.98 12 -2 12 C-2.33 11.01 -2.66 10.02 -3 9 C-3.556875 9.144375 -4.11375 9.28875 -4.6875 9.4375 C-5.8321875 9.7159375 -5.8321875 9.7159375 -7 10 C-8.299375 10.3403125 -8.299375 10.3403125 -9.625 10.6875 C-10.800625 10.8421875 -10.800625 10.8421875 -12 11 C-12.66 10.34 -13.32 9.68 -14 9 C-13.625 6.375 -13.625 6.375 -13 4 C-10.625 3.375 -10.625 3.375 -8 3 C-7.34 3.66 -6.68 4.32 -6 5 C-3.39719432 4.67958603 -3.39719432 4.67958603 -1 4 C-0.67 2.68 -0.34 1.36 0 0 Z " fill="#FF9F93" transform="translate(1617,142)"/>
<path d="M0 0 C2.5 -0.3125 2.5 -0.3125 5 0 C7 2 7 2 7.1953125 4.1640625 C7.13020833 6.44270833 7.06510417 8.72135417 7 11 C4.03 11 1.06 11 -2 11 C-2.33 9.35 -2.66 7.7 -3 6 C-0.35261084 4.5393715 0.89448334 4 4 4 C4 3.34 4 2.68 4 2 C2.02 2.33 0.04 2.66 -2 3 C-1.34 2.01 -0.68 1.02 0 0 Z " fill="#FFF3F2" transform="translate(221,141)"/>
<path d="M0 0 C2.64 0 5.28 0 8 0 C8.33 1.98 8.66 3.96 9 6 C8.34 6 7.68 6 7 6 C7.66 7.65 8.32 9.3 9 11 C7.68 10.34 6.36 9.68 5 9 C5 8.34 5 7.68 5 7 C4.34 7 3.68 7 3 7 C3 8.65 3 10.3 3 12 C2.01 11.67 1.02 11.34 0 11 C0 7.37 0 3.74 0 0 Z " fill="#FFF3F2" transform="translate(1708,247)"/>
<path d="M0 0 C1.051875 0.185625 2.10375 0.37125 3.1875 0.5625 C6.59542211 0.95357303 8.73089212 0.76920185 12 0 C13 1 13 1 13.09765625 2.84765625 C13.04882812 5.92382812 13.04882812 5.92382812 13 9 C9.66666667 9 6.33333333 9 3 9 C2.87625 7.88625 2.7525 6.7725 2.625 5.625 C2.3534187 1.96896323 2.3534187 1.96896323 0 0 Z " fill="#FFC7C1" transform="translate(1461,250)"/>
<path d="M0 0 C1.4540625 0.0309375 1.4540625 0.0309375 2.9375 0.0625 C2.99141993 1.85383978 3.03025571 3.64563899 3.0625 5.4375 C3.08570313 6.43523437 3.10890625 7.43296875 3.1328125 8.4609375 C2.9375 11.0625 2.9375 11.0625 0.9375 13.0625 C-1.6875 12.6875 -1.6875 12.6875 -4.0625 12.0625 C-4.0625 11.4025 -4.0625 10.7425 -4.0625 10.0625 C-2.4125 10.0625 -0.7625 10.0625 0.9375 10.0625 C0.009375 9.9078125 0.009375 9.9078125 -0.9375 9.75 C-3.0625 9.0625 -3.0625 9.0625 -5.0625 6.0625 C-4.35134559 0.08880297 -4.35134559 0.08880297 0 0 Z " fill="#FFE2DF" transform="translate(905.0625,380.9375)"/>
<path d="M0 0 C1.98 0 3.96 0 6 0 C8 2 8 2 8.25 4.5 C8 7 8 7 6 9 C4.68 9 3.36 9 2 9 C2 9.99 2 10.98 2 12 C1.34 12 0.68 12 0 12 C0 8.04 0 4.08 0 0 Z " fill="#FFE2DE" transform="translate(397,188)"/>
<path d="M0 0 C2.5 0.25 2.5 0.25 4.5 2.25 C4.5 3.57 4.5 4.89 4.5 6.25 C2.19 6.25 -0.12 6.25 -2.5 6.25 C-2.17 6.91 -1.84 7.57 -1.5 8.25 C0.48 8.25 2.46 8.25 4.5 8.25 C4.17 9.24 3.84 10.23 3.5 11.25 C0.625 11.375 0.625 11.375 -2.5 11.25 C-4.5 9.25 -4.5 9.25 -4.75 5.75 C-4.46177779 1.71488904 -4.15174939 0.41517494 0 0 Z " fill="#FFFAF9" transform="translate(193.5,140.75)"/>
<path d="M0 0 C0.33 0 0.66 0 1 0 C1 4.29 1 8.58 1 13 C0.67 11.68 0.34 10.36 0 9 C-3.17973464 6.64464101 -6.15124621 6.82505665 -10 7 C-10.33 8.32 -10.66 9.64 -11 11 C-9.68 11.33 -8.36 11.66 -7 12 C-8.65 12.33 -10.3 12.66 -12 13 C-14 10 -14 10 -13.6875 7.375 C-13 5 -13 5 -12 4 C-9.73671744 3.9278635 -7.48995407 4.00351911 -5.2265625 4.0625 C-2.82535035 4.10260791 -2.82535035 4.10260791 0 3 C0 2.01 0 1.02 0 0 Z " fill="#FFA79D" transform="translate(1660,173)"/>
<path d="M0 0 C0.33 0.99 0.66 1.98 1 3 C2.32 3.33 3.64 3.66 5 4 C5 7.63 5 11.26 5 15 C3.02 15.99 1.04 16.98 -1 18 C-2.25866051 13.46882217 -2.25866051 13.46882217 -1 11.1875 C0.57793554 7.73576601 -0.45240987 4.71144421 -1 1 C-0.67 0.67 -0.34 0.34 0 0 Z " fill="#FFA397" transform="translate(1624,171)"/>
<path d="M0 0 C0.33 0.99 0.66 1.98 1 3 C2.32 3.33 3.64 3.66 5 4 C5 7.63 5 11.26 5 15 C3.02 15.99 1.04 16.98 -1 18 C-1.02684312 15.18743719 -1.04676188 12.37512759 -1.0625 9.5625 C-1.07087891 8.76005859 -1.07925781 7.95761719 -1.08789062 7.13085938 C-1.0965143 5.08704779 -1.0522815 3.04316098 -1 1 C-0.67 0.67 -0.34 0.34 0 0 Z " fill="#FFA094" transform="translate(1640,139)"/>
<path d="M0 0 C0.33 0.66 0.66 1.32 1 2 C2.98 2 4.96 2 7 2 C7 4.97 7 7.94 7 11 C4.69 11 2.38 11 0 11 C-0.19491452 9.54263913 -0.38069358 8.08405407 -0.5625 6.625 C-0.66691406 5.81289063 -0.77132812 5.00078125 -0.87890625 4.1640625 C-1 2 -1 2 0 0 Z " fill="#FFC4BD" transform="translate(991,379)"/>
<path d="M0 0 C0.66 0 1.32 0 2 0 C2.33 2.97 2.66 5.94 3 9 C3.99 9 4.98 9 6 9 C6.33 6.03 6.66 3.06 7 0 C7.99 0 8.98 0 10 0 C10.08131463 1.43655854 10.13933559 2.8744483 10.1875 4.3125 C10.22230469 5.11300781 10.25710938 5.91351563 10.29296875 6.73828125 C10 9 10 9 8.68359375 10.80859375 C7 12 7 12 3.875 11.75 C1 11 1 11 0 10 C-0.07205511 8.31391034 -0.08386068 6.62499341 -0.0625 4.9375 C-0.05347656 4.01839844 -0.04445313 3.09929687 -0.03515625 2.15234375 C-0.02355469 1.44207031 -0.01195312 0.73179687 0 0 Z " fill="#FFE4E1" transform="translate(1664,247)"/>
<path d="M0 0 C0.33 0 0.66 0 1 0 C1 3.96 1 7.92 1 12 C-0.98 12 -2.96 12 -5 12 C-6 11 -6 11 -6.0625 7.4375 C-6.041875 6.303125 -6.02125 5.16875 -6 4 C-4.35 3.67 -2.7 3.34 -1 3 C-0.67 2.01 -0.34 1.02 0 0 Z " fill="#FFCBC5" transform="translate(1514,247)"/>
<path d="M0 0 C0.33 0 0.66 0 1 0 C1 3.96 1 7.92 1 12 C-0.98 12 -2.96 12 -5 12 C-6 11 -6 11 -6.0625 7.4375 C-6.041875 6.303125 -6.02125 5.16875 -6 4 C-4.35 3.67 -2.7 3.34 -1 3 C-0.67 2.01 -0.34 1.02 0 0 Z " fill="#FFCBC5" transform="translate(1504,247)"/>
<path d="M0 0 C2.31 0.33 4.62 0.66 7 1 C7 3.31 7 5.62 7 8 C6.21625 8.103125 5.4325 8.20625 4.625 8.3125 C1.66954819 8.77595022 1.66954819 8.77595022 0 12 C0 8.04 0 4.08 0 0 Z " fill="#FFEEEC" transform="translate(873,381)"/>
<path d="M0 0 C0.99 1.485 0.99 1.485 2 3 C4.56282742 3.72965366 4.56282742 3.72965366 7 4 C7 6.31 7 8.62 7 11 C2.25 12 2.25 12 0 12 C0 8.04 0 4.08 0 0 Z " fill="#FFEFED" transform="translate(264,185)"/>
<path d="M0 0 C4.70588235 0.70588235 4.70588235 0.70588235 6 2 C6.125 5 6.125 5 6 8 C5 9 5 9 2.5625 9.1875 C0 9 0 9 -2 7 C-1.43181818 1.43181818 -1.43181818 1.43181818 0 0 Z " fill="#FFE0DD" transform="translate(465,188)"/>
<path d="M0 0 C4.55555556 0.55555556 4.55555556 0.55555556 6 2 C5.71269945 4.33944736 5.38063221 6.6739143 5 9 C2.625 9.125 2.625 9.125 0 9 C-2 7 -2 7 -2.25 4.5 C-2 2 -2 2 0 0 Z " fill="#FFE4E1" transform="translate(389,188)"/>
<path d="M0 0 C4.70588235 0.70588235 4.70588235 0.70588235 6 2 C5.71269945 4.33944736 5.38063221 6.6739143 5 9 C2.625 9.125 2.625 9.125 0 9 C-0.66 8.34 -1.32 7.68 -2 7 C-1.43181818 1.43181818 -1.43181818 1.43181818 0 0 Z " fill="#FFE6E3" transform="translate(275,188)"/>
<path d="M0 0 C1 1 1 1 1.125 4 C1 7 1 7 0 8 C-2.4375 8.25 -2.4375 8.25 -5 8 C-7 5 -7 5 -6.75 2.375 C-6.5025 1.59125 -6.255 0.8075 -6 0 C-3.49749232 -1.25125384 -2.59701335 -0.83774624 0 0 Z " fill="#FFE6E3" transform="translate(948,382)"/>
<path d="M0 0 C2.625 0.375 2.625 0.375 5 1 C5.625 3.3125 5.625 3.3125 6 6 C5.01 7.485 5.01 7.485 4 9 C1.375 9.1875 1.375 9.1875 -1 9 C-1.625 5.625 -1.625 5.625 -2 2 C-1.34 1.34 -0.68 0.68 0 0 Z " fill="#FFD9D4" transform="translate(1010,381)"/>
<path d="M0 0 C0.33 1.32 0.66 2.64 1 4 C0.34 4 -0.32 4 -1 4 C-1 3.34 -1 2.68 -1 2 C-2.32 2.33 -3.64 2.66 -5 3 C-5 4.98 -5 6.96 -5 9 C-3.02 8.67 -1.04 8.34 1 8 C0.34 9.32 -0.32 10.64 -1 12 C-3.875 11.6875 -3.875 11.6875 -7 11 C-9.15502531 7.76746204 -9.46856135 6.74849077 -9 3 C-6.71619742 -0.67945972 -4.04424788 -0.26961653 0 0 Z " fill="#FFEAE8" transform="translate(1705,247)"/>
<path d="M0 0 C1.98 0 3.96 0 6 0 C6.33 0.99 6.66 1.98 7 3 C4.03 2.505 4.03 2.505 1 2 C2.39195915 4.7839183 4.15575779 4.97898997 7 6 C6.125 10.875 6.125 10.875 5 12 C3.33382885 12.04063832 1.66611905 12.042721 0 12 C-0.66 10.68 -1.32 9.36 -2 8 C0.97 8.495 0.97 8.495 4 9 C4.33 8.34 4.66 7.68 5 7 C3.02 6.34 1.04 5.68 -1 5 C-0.67 3.35 -0.34 1.7 0 0 Z " fill="#FFF2F0" transform="translate(1655,247)"/>
<path d="M0 0 C2.31 0 4.62 0 7 0 C7 0.66 7 1.32 7 2 C5.35 2 3.7 2 2 2 C2 2.99 2 3.98 2 5 C3.65 5 5.3 5 7 5 C7 5.66 7 6.32 7 7 C5.35 7 3.7 7 2 7 C2 7.99 2 8.98 2 10 C3.98 10 5.96 10 8 10 C8 10.66 8 11.32 8 12 C5.36 12 2.72 12 0 12 C0 8.04 0 4.08 0 0 Z " fill="#FFEDEB" transform="translate(1734,247)"/>
<path d="M0 0 C1.2684375 0.12375 1.2684375 0.12375 2.5625 0.25 C3.2225 1.24 3.8825 2.23 4.5625 3.25 C2.2525 2.92 -0.0575 2.59 -2.4375 2.25 C-1.59183261 4.52173092 -1.59183261 4.52173092 1.0625 5.125 C3.5625 6.25 3.5625 6.25 4.5 8.25 C4.520625 8.91 4.54125 9.57 4.5625 10.25 C2.5625 12.25 2.5625 12.25 -0.0625 12.375 C-0.84625 12.33375 -1.63 12.2925 -2.4375 12.25 C-3.0975 10.93 -3.7575 9.61 -4.4375 8.25 C-2.4575 8.91 -0.4775 9.57 1.5625 10.25 C1.2325 9.26 0.9025 8.27 0.5625 7.25 C-1.94197516 6.03130071 -1.94197516 6.03130071 -4.4375 5.25 C-3.32911727 0.34144793 -3.32911727 0.34144793 0 0 Z " fill="#FFF3F2" transform="translate(1690.4375,246.75)"/>
<path d="M0 0 C2.625 0.375 2.625 0.375 5 1 C5.04241723 3.33294775 5.04092937 5.66702567 5 8 C4 9 4 9 1.5 9.125 C-1 9 -1 9 -2 8 C-2.1875 5.0625 -2.1875 5.0625 -2 2 C-1.34 1.34 -0.68 0.68 0 0 Z " fill="#FFEAE8" transform="translate(177,188)"/>
<path d="M0 0 C0.95530645 3.23275701 1.16460378 6.19675639 1.1875 9.5625 C1.20167969 10.51253906 1.21585938 11.46257812 1.23046875 12.44140625 C1 15 1 15 -1 18 C-1 17.01 -1 16.02 -1 15 C-1.99 14.67 -2.98 14.34 -4 14 C-4 10.7 -4 7.4 -4 4 C-2.68 3.67 -1.36 3.34 0 3 C0 2.01 0 1.02 0 0 Z " fill="#FF9F94" transform="translate(1639,171)"/>
<path d="M0 0 C2.625 0.375 2.625 0.375 5 1 C5.625 3.375 5.625 3.375 6 6 C5.34 6.66 4.68 7.32 4 8 C1.375 7.625 1.375 7.625 -1 7 C-1.625 4.625 -1.625 4.625 -2 2 C-1.34 1.34 -0.68 0.68 0 0 Z " fill="#FF9B8F" transform="translate(237,241)"/>
<path d="M0 0 C5.34965035 -0.35664336 5.34965035 -0.35664336 7.9375 1.0625 C9.61676907 4.12469653 8.68621125 6.69370941 8 10 C6.576875 10.12375 6.576875 10.12375 5.125 10.25 C1.89538209 10.65074923 1.89538209 10.65074923 0.625 13.0625 C0.41875 13.701875 0.2125 14.34125 0 15 C0 13.02 0 11.04 0 9 C1.65 8.67 3.3 8.34 5 8 C5 6.35 5 4.7 5 3 C3.35 2.67 1.7 2.34 0 2 C0 1.34 0 0.68 0 0 Z " fill="#FFF3F2" transform="translate(232,141)"/>
<path d="M0 0 C1.66611905 -0.042721 3.33382885 -0.04063832 5 0 C6 1 6 1 6.1875 3.9375 C6 7 6 7 4 9 C2.68 9 1.36 9 0 9 C0 6.03 0 3.06 0 0 Z " fill="#FF998D" transform="translate(932,380)"/>
<path d="M0 0 C4.70588235 0.70588235 4.70588235 0.70588235 6 2 C6.04092937 4.33297433 6.04241723 6.66705225 6 9 C4.02 9 2.04 9 0 9 C-0.625 7.125 -0.625 7.125 -1 5 C-0.34 4.34 0.32 3.68 1 3 C0.34 2.34 -0.32 1.68 -1 1 C-0.67 0.67 -0.34 0.34 0 0 Z " fill="#FFC5BE" transform="translate(1490,250)"/>
<path d="M0 0 C2.97 0.495 2.97 0.495 6 1 C6 3.64 6 6.28 6 9 C4.02 9 2.04 9 0 9 C-0.33 7.68 -0.66 6.36 -1 5 C0.65 4.67 2.3 4.34 4 4 C4 3.34 4 2.68 4 2 C2.35 2.33 0.7 2.66 -1 3 C-0.67 2.01 -0.34 1.02 0 0 Z " fill="#FFD7D2" transform="translate(489,188)"/>
<path d="M0 0 C1.67542976 0.28604898 3.34385343 0.61781233 5 1 C5.33 2.65 5.66 4.3 6 6 C3.6875 7.125 3.6875 7.125 1 8 C0.01 7.34 -0.98 6.68 -2 6 C-1.125 1.125 -1.125 1.125 0 0 Z " fill="#FF9E93" transform="translate(929,193)"/>
<path d="M0 0 C2.625 0.375 2.625 0.375 5 1 C5.6875 2.8125 5.6875 2.8125 6 5 C4.8125 6.8125 4.8125 6.8125 3 8 C0.8125 7.6875 0.8125 7.6875 -1 7 C-1.625 4.625 -1.625 4.625 -2 2 C-1.34 1.34 -0.68 0.68 0 0 Z " fill="#FF9D91" transform="translate(875,193)"/>
<path d="M0 0 C0.99 0.33 1.98 0.66 3 1 C3.94921875 3.28515625 3.94921875 3.28515625 4.6875 6.0625 C5.06455078 7.44115234 5.06455078 7.44115234 5.44921875 8.84765625 C5.63097656 9.55792969 5.81273437 10.26820313 6 11 C5.34 11 4.68 11 4 11 C4 10.01 4 9.02 4 8 C2.02 8 0.04 8 -2 8 C-2 8.99 -2 9.98 -2 11 C-2.66 10.67 -3.32 10.34 -4 10 C-2.68 6.7 -1.36 3.4 0 0 Z " fill="#FFDBD7" transform="translate(256,186)"/>
<path d="M0 0 C4.875 0.875 4.875 0.875 6 2 C6.04092937 4.33297433 6.04241723 6.66705225 6 9 C4.02 9 2.04 9 0 9 C-0.33 7.68 -0.66 6.36 -1 5 C0.65 4.67 2.3 4.34 4 4 C4 3.34 4 2.68 4 2 C2.35 2.33 0.7 2.66 -1 3 C-0.67 2.01 -0.34 1.02 0 0 Z " fill="#FFC8C1" transform="translate(982,381)"/>
<path d="M0 0 C2.31 0 4.62 0 7 0 C7 0.66 7 1.32 7 2 C5.35 2 3.7 2 2 2 C2 2.99 2 3.98 2 5 C3.65 5 5.3 5 7 5 C7 5.66 7 6.32 7 7 C5.35 7 3.7 7 2 7 C2 8.32 2 9.64 2 11 C3.65 11 5.3 11 7 11 C7 11.33 7 11.66 7 12 C4.69 12 2.38 12 0 12 C0 8.04 0 4.08 0 0 Z " fill="#FFE0DC" transform="translate(1400,247)"/>
<path d="M0 0 C2.31 0 4.62 0 7 0 C7.33 1.32 7.66 2.64 8 4 C6.02 3.34 4.04 2.68 2 2 C2 2.99 2 3.98 2 5 C3.32 5.33 4.64 5.66 6 6 C4.68 6 3.36 6 2 6 C2 7.32 2 8.64 2 10 C4.86724686 9.42655063 5.8614515 9.1385485 8 7 C7.67 8.32 7.34 9.64 7 11 C4.69 11 2.38 11 0 11 C0 7.37 0 3.74 0 0 Z " fill="#FFF8F7" transform="translate(1676,247)"/>
<path d="M0 0 C0.99 0.33 1.98 0.66 3 1 C2.67 3.64 2.34 6.28 2 9 C-0.97 8.67 -3.94 8.34 -7 8 C-7 6.68 -7 5.36 -7 4 C-5.02 3.67 -3.04 3.34 -1 3 C-0.67 2.01 -0.34 1.02 0 0 Z " fill="#FFB4AA" transform="translate(1409,250)"/>
<path d="M0 0 C0.99 0 1.98 0 3 0 C3 0.66 3 1.32 3 2 C3.66 2 4.32 2 5 2 C5 2.66 5 3.32 5 4 C4.34 4 3.68 4 3 4 C3 6.31 3 8.62 3 11 C3.66 11 4.32 11 5 11 C5 11.66 5 12.32 5 13 C3.35 12.67 1.7 12.34 0 12 C-0.19477739 10.37585622 -0.38059458 8.75063577 -0.5625 7.125 C-0.66691406 6.22007812 -0.77132812 5.31515625 -0.87890625 4.3828125 C-1 2 -1 2 0 0 Z " fill="#FFF9F9" transform="translate(182,139)"/>
<path d="M0 0 C2.625 0.375 2.625 0.375 5 1 C5.33 2.32 5.66 3.64 6 5 C4.02 5 2.04 5 0 5 C0.33 5.66 0.66 6.32 1 7 C2.32 7 3.64 7 5 7 C5 7.66 5 8.32 5 9 C2.625 9.125 2.625 9.125 0 9 C-2 7 -2 7 -2.25 4.5 C-2 2 -2 2 0 0 Z " fill="#FFD9D5" transform="translate(1525,250)"/>
<path d="M0 0 C2.625 0.375 2.625 0.375 5 1 C5.33 2.32 5.66 3.64 6 5 C4.02 5 2.04 5 0 5 C0.33 5.66 0.66 6.32 1 7 C2.65 7 4.3 7 6 7 C5.67 7.66 5.34 8.32 5 9 C2.625 9.125 2.625 9.125 0 9 C-2 7 -2 7 -2.25 4.5 C-2 2 -2 2 0 0 Z " fill="#FFD9D5" transform="translate(1446,250)"/>
<path d="M0 0 C0.66 0 1.32 0 2 0 C2 1.65 2 3.3 2 5 C3.98 5 5.96 5 8 5 C8.33 3.68 8.66 2.36 9 1 C9 4.63 9 8.26 9 12 C8.67 12 8.34 12 8 12 C8 10.35 8 8.7 8 7 C6.02 7 4.04 7 2 7 C2 8.65 2 10.3 2 12 C1.34 12 0.68 12 0 12 C0 8.04 0 4.08 0 0 Z " fill="#FFE6E3" transform="translate(163,185)"/>
<path d="M0 0 C1.67542976 0.28604898 3.34385343 0.61781233 5 1 C5.33 2.32 5.66 3.64 6 5 C4.02 5 2.04 5 0 5 C0.33 5.66 0.66 6.32 1 7 C2.65 7 4.3 7 6 7 C5.67 7.66 5.34 8.32 5 9 C2.625 9.125 2.625 9.125 0 9 C-0.66 8.34 -1.32 7.68 -2 7 C-1.43181818 1.43181818 -1.43181818 1.43181818 0 0 Z " fill="#FFDBD6" transform="translate(973,381)"/>
<path d="M0 0 C1.32 0 2.64 0 4 0 C5.125 5.75 5.125 5.75 4 8 C2.35 7.67 0.7 7.34 -1 7 C-1.625 4.625 -1.625 4.625 -2 2 C-1.34 1.34 -0.68 0.68 0 0 Z " fill="#FFA195" transform="translate(1528,145)"/>
<path d="M0 0 C1.67542976 0.28604898 3.34385343 0.61781233 5 1 C5 3.64 5 6.28 5 9 C3.02 9 1.04 9 -1 9 C-1.33 7.68 -1.66 6.36 -2 5 C-0.35 4.67 1.3 4.34 3 4 C3 3.34 3 2.68 3 2 C1.68 1.67 0.36 1.34 -1 1 C-0.67 0.67 -0.34 0.34 0 0 Z " fill="#FFEBE9" transform="translate(1033,381)"/>
<path d="M0 0 C0.33 1.32 0.66 2.64 1 4 C-0.98 4 -2.96 4 -5 4 C-4.67 4.66 -4.34 5.32 -4 6 C-2.35 6 -0.7 6 1 6 C0.67 6.66 0.34 7.32 0 8 C-2.375 8.125 -2.375 8.125 -5 8 C-5.66 7.34 -6.32 6.68 -7 6 C-6.75 2.9375 -6.75 2.9375 -6 0 C-3.50907189 -1.24546405 -2.58919267 -0.7767578 0 0 Z " fill="#FFDBD7" transform="translate(1061,382)"/>
<path d="M0 0 C2.5 0.125 2.5 0.125 3.5 1.125 C3.625 3.625 3.625 3.625 3.5 6.125 C2.5 7.125 2.5 7.125 0 7.25 C-2.5 7.125 -2.5 7.125 -3.5 6.125 C-3.625 3.625 -3.625 3.625 -3.5 1.125 C-2.5 0.125 -2.5 0.125 0 0 Z " fill="#FF998C" transform="translate(859.5,237.875)"/>
<path d="M0 0 C1.67542976 0.28604898 3.34385343 0.61781233 5 1 C5.33 2.32 5.66 3.64 6 5 C4.02 5 2.04 5 0 5 C0.33 5.66 0.66 6.32 1 7 C2.32 7 3.64 7 5 7 C5 7.66 5 8.32 5 9 C2.625 9.125 2.625 9.125 0 9 C-0.66 8.34 -1.32 7.68 -2 7 C-1.43181818 1.43181818 -1.43181818 1.43181818 0 0 Z " fill="#FFDBD7" transform="translate(200,188)"/>
<path d="M0 0 C2 2 2 2 2.1953125 4.3828125 C2.17210937 5.28773438 2.14890625 6.19265625 2.125 7.125 C2.10695313 8.03507813 2.08890625 8.94515625 2.0703125 9.8828125 C2.04710937 10.58148438 2.02390625 11.28015625 2 12 C1.59136719 11.35546875 1.18273438 10.7109375 0.76171875 10.046875 C-0.80046372 7.85934897 -0.80046372 7.85934897 -3.04296875 7.390625 C-4.10451172 7.32101563 -4.10451172 7.32101563 -5.1875 7.25 C-6.445625 7.1675 -7.70375 7.085 -9 7 C-8.34 6.01 -7.68 5.02 -7 4 C-3.375 3.8125 -3.375 3.8125 0 4 C0 2.68 0 1.36 0 0 Z " fill="#FFABA0" transform="translate(1723,172)"/>
<path d="M0 0 C2.125 0.375 2.125 0.375 4 1 C4.625 3.375 4.625 3.375 5 6 C4.34 6.66 3.68 7.32 3 8 C0.875 7.625 0.875 7.625 -1 7 C-1.625 4.625 -1.625 4.625 -2 2 C-1.34 1.34 -0.68 0.68 0 0 Z " fill="#FF9D91" transform="translate(1522,177)"/>
<path d="M0 0 C4.875 0.875 4.875 0.875 6 2 C6.125 4.5 6.125 4.5 6 7 C5 8 5 8 2.4375 8.0625 C1.633125 8.041875 0.82875 8.02125 0 8 C0 5.36 0 2.72 0 0 Z " fill="#FF988C" transform="translate(1478,177)"/>
<path d="M0 0 C2.00720923 0.28674418 4.0085944 0.61866701 6 1 C6 2.32 6 3.64 6 5 C4.02 5 2.04 5 0 5 C0.33 5.66 0.66 6.32 1 7 C2.65 7 4.3 7 6 7 C5.67 7.66 5.34 8.32 5 9 C3.33388095 9.042721 1.66617115 9.04063832 0 9 C-1 8 -1 8 -1.125 4.5 C-1 1 -1 1 0 0 Z " fill="#FFDAD5" transform="translate(1426,250)"/>
<path d="M0 0 C2.475 0.495 2.475 0.495 5 1 C6.125 5.75 6.125 5.75 5 8 C3.35 8 1.7 8 0 8 C0 5.36 0 2.72 0 0 Z " fill="#FF988B" transform="translate(1682,145)"/>
<path d="M0 0 C0.66 0 1.32 0 2 0 C2.33 1.65 2.66 3.3 3 5 C4.32 4.34 5.64 3.68 7 3 C6.62875 3.7425 6.2575 4.485 5.875 5.25 C4.70484137 7.94283647 4.70484137 7.94283647 5.875 10.3125 C6.431875 11.1478125 6.431875 11.1478125 7 12 C6.34 12 5.68 12 5 12 C4.34 11.01 3.68 10.02 3 9 C2.67 9.99 2.34 10.98 2 12 C1.34 12 0.68 12 0 12 C0 8.04 0 4.08 0 0 Z " fill="#FFDCD8" transform="translate(1046,378)"/>
<path d="M0 0 C0 3.3 0 6.6 0 10 C-4 8 -4 8 -7 6 C-7 5.34 -7 4.68 -7 4 C-2.52941176 0 -2.52941176 0 0 0 Z " fill="#FFA297" transform="translate(1468,143)"/>
<path d="M0 0 C1.67542976 0.28604898 3.34385343 0.61781233 5 1 C4.67 3.31 4.34 5.62 4 8 C2.68 8.33 1.36 8.66 0 9 C-0.87890625 2.84765625 -0.87890625 2.84765625 -1 1 C-0.67 0.67 -0.34 0.34 0 0 Z " fill="#FFFBFA" transform="translate(1700,137)"/>
<path d="M0 0 C2.64 0 5.28 0 8 0 C7.34 1.98 6.68 3.96 6 6 C4.68 6 3.36 6 2 6 C1.67 7.65 1.34 9.3 1 11 C0.67 11 0.34 11 0 11 C0 7.37 0 3.74 0 0 Z " fill="#FFC9C2" transform="translate(1708,247)"/>
<path d="M0 0 C1.99954746 -0.04254356 4.00041636 -0.04080783 6 0 C7 1 7 1 7.09765625 2.84765625 C7.06510417 4.8984375 7.03255208 6.94921875 7 9 C6.34 9 5.68 9 5 9 C5 6.69 5 4.38 5 2 C4.01 2 3.02 2 2 2 C2 4.31 2 6.62 2 9 C1.34 9 0.68 9 0 9 C0 6.03 0 3.06 0 0 Z " fill="#FFDDD9" transform="translate(473,188)"/>
<path d="M0 0 C0.66 0 1.32 0 2 0 C2 0.99 2 1.98 2 3 C3.65 3.33 5.3 3.66 7 4 C7 6.64 7 9.28 7 12 C6.67 12 6.34 12 6 12 C6 9.69 6 7.38 6 5 C4.68 5 3.36 5 2 5 C2 7.31 2 9.62 2 12 C1.34 12 0.68 12 0 12 C0 8.04 0 4.08 0 0 Z " fill="#FFE3E0" transform="translate(378,185)"/>
<path d="M0 0 C1.66611905 -0.042721 3.33382885 -0.04063832 5 0 C6 1 6 1 6.0625 3.5625 C6.041875 4.366875 6.02125 5.17125 6 6 C3.69 6 1.38 6 -1 6 C-0.67 4.02 -0.34 2.04 0 0 Z " fill="#FF9D91" transform="translate(912,238)"/>
<path d="M0 0 C2.475 0.495 2.475 0.495 5 1 C5.625 2.8125 5.625 2.8125 6 5 C5.01 6.485 5.01 6.485 4 8 C2.68 8 1.36 8 0 8 C0 5.36 0 2.72 0 0 Z " fill="#FFB7AF" transform="translate(1678,249)"/>
<path d="M0 0 C0.66 0 1.32 0 2 0 C2 2.31 2 4.62 2 7 C3.32 7 4.64 7 6 7 C6 4.69 6 2.38 6 0 C6.33 0 6.66 0 7 0 C7 2.97 7 5.94 7 9 C5.00045254 9.04254356 2.99958364 9.04080783 1 9 C0 8 0 8 -0.09765625 6.15234375 C-0.06510417 4.1015625 -0.03255208 2.05078125 0 0 Z " fill="#FFE4E1" transform="translate(283,188)"/>
<path d="M0 0 C0.99 0 1.98 0 3 0 C3 3.63 3 7.26 3 11 C2.01 11 1.02 11 0 11 C0 7.37 0 3.74 0 0 Z " fill="#FFF0EE" transform="translate(176,141)"/>
<path d="M0 0 C0 0.66 0 1.32 0 2 C-0.928125 2.1546875 -0.928125 2.1546875 -1.875 2.3125 C-4.36526484 2.87525373 -4.36526484 2.87525373 -6 6 C-8.62113708 6 -10.50935112 5.68707555 -13 5 C-13 4.34 -13 3.68 -13 3 C-11.02 3 -9.04 3 -7 3 C-7 2.34 -7 1.68 -7 1 C-4.50935112 0.31292445 -2.62113708 0 0 0 Z " fill="#FF9F93" transform="translate(986,383)"/>
<path d="M0 0 C0.33 0 0.66 0 1 0 C1 2.64 1 5.28 1 8 C-0.98 8 -2.96 8 -5 8 C-5 6.35 -5 4.7 -5 3 C-3.35 3 -1.7 3 0 3 C0 2.01 0 1.02 0 0 Z " fill="#FFD6D1" transform="translate(1473,251)"/>
<path d="M0 0 C2.0625 0.4375 2.0625 0.4375 4 1 C4 2.65 4 4.3 4 6 C2.0625 6.5625 2.0625 6.5625 0 7 C-1 6 -1 6 -1.125 3.5 C-1 1 -1 1 0 0 Z " fill="#FF9E92" transform="translate(234,143)"/>
<path d="M0 0 C1.65 0.33 3.3 0.66 5 1 C3.68 1.33 2.36 1.66 1 2 C1 2.66 1 3.32 1 4 C2.32 4.33 3.64 4.66 5 5 C5 6.32 5 7.64 5 9 C3.35 9 1.7 9 0 9 C-0.33 8.34 -0.66 7.68 -1 7 C0.32 6.67 1.64 6.34 3 6 C1.68 5.34 0.36 4.68 -1 4 C-0.67 2.68 -0.34 1.36 0 0 Z " fill="#FFE5E2" transform="translate(1542,250)"/>
<path d="M0 0 C0.66 0 1.32 0 2 0 C2.33 1.65 2.66 3.3 3 5 C3.66 5 4.32 5 5 5 C5.33 3.35 5.66 1.7 6 0 C6.66 0 7.32 0 8 0 C7.01 2.97 6.02 5.94 5 9 C4.34 9 3.68 9 3 9 C2.01 6.03 1.02 3.06 0 0 Z " fill="#FFE1DE" transform="translate(999,381)"/>
<path d="M0 0 C1.32 0 2.64 0 4 0 C4 1.65 4 3.3 4 5 C2.35 5.66 0.7 6.32 -1 7 C-1.04254356 5.00045254 -1.04080783 2.99958364 -1 1 C-0.67 0.67 -0.34 0.34 0 0 Z " fill="#FFA296" transform="translate(865,383)"/>
<path d="M0 0 C2.625 0.375 2.625 0.375 5 1 C5 1.66 5 2.32 5 3 C3.35 3 1.7 3 0 3 C0.33 4.32 0.66 5.64 1 7 C2.32 6.67 3.64 6.34 5 6 C4.67 6.99 4.34 7.98 4 9 C2.33388095 9.042721 0.66617115 9.04063832 -1 9 C-2 8 -2 8 -2.1875 5.0625 C-2 2 -2 2 0 0 Z " fill="#FFE4E1" transform="translate(959,381)"/>
<path d="M0 0 C2.35953094 2.35953094 2.49141413 3.77895617 3 7 C2.01 7 1.02 7 0 7 C0 6.01 0 5.02 0 4 C-2.31 4 -4.62 4 -7 4 C-7.33 3.34 -7.66 2.68 -8 2 C-6.865625 1.855625 -5.73125 1.71125 -4.5625 1.5625 C-1.19222799 1.38828522 -1.19222799 1.38828522 0 0 Z " fill="#FFA095" transform="translate(1723,182)"/>
<path d="M0 0 C1.32 0.66 2.64 1.32 4 2 C3.67 3.32 3.34 4.64 3 6 C1.35 5.67 -0.3 5.34 -2 5 C-1.125 1.125 -1.125 1.125 0 0 Z " fill="#FFA69C" transform="translate(1734,176)"/>
<path d="M0 0 C0.33 0.99 0.66 1.98 1 3 C1.66 3 2.32 3 3 3 C3.33 2.01 3.66 1.02 4 0 C4.99 0 5.98 0 7 0 C7.33 1.65 7.66 3.3 8 5 C5.69 5 3.38 5 1 5 C0.67 3.35 0.34 1.7 0 0 Z " fill="#FFCCC6" transform="translate(218,147)"/>
<path d="M0 0 C1.65 0.33 3.3 0.66 5 1 C4.67 2.65 4.34 4.3 4 6 C2.68 6.33 1.36 6.66 0 7 C-0.66 5.68 -1.32 4.36 -2 3 C-1.34 2.01 -0.68 1.02 0 0 Z " fill="#FFF6F5" transform="translate(991,130)"/>
<path d="M0 0 C0.625 1.8125 0.625 1.8125 1 4 C0.01 5.485 0.01 5.485 -1 7 C-3.625 7.1875 -3.625 7.1875 -6 7 C-6 5.68 -6 4.36 -6 3 C-4.02 3 -2.04 3 0 3 C0 2.01 0 1.02 0 0 Z " fill="#FFBEB6" transform="translate(1015,383)"/>
<path d="M0 0 C3.14737182 0.69941596 6.02588876 1.76078698 9 3 C9 3.66 9 4.32 9 5 C5.7 5 2.4 5 -1 5 C-0.67 3.35 -0.34 1.7 0 0 Z " fill="#FFA296" transform="translate(1522,212)"/>
<path d="M0 0 C1.32 0 2.64 0 4 0 C4 1.65 4 3.3 4 5 C2.68 5.33 1.36 5.66 0 6 C-0.38218767 4.34385343 -0.71395102 2.67542976 -1 1 C-0.67 0.67 -0.34 0.34 0 0 Z " fill="#FF9D92" transform="translate(266,190)"/>
<path d="M0 0 C0.99 0 1.98 0 3 0 C3.33 1.65 3.66 3.3 4 5 C2.68 5.33 1.36 5.66 0 6 C-0.66 4.68 -1.32 3.36 -2 2 C-1.34 1.34 -0.68 0.68 0 0 Z " fill="#FFA59A" transform="translate(1501,176)"/>
<path d="M0 0 C1.32 0.66 2.64 1.32 4 2 C4 2.99 4 3.98 4 5 C2.35 5.33 0.7 5.66 -1 6 C-1.625 4.125 -1.625 4.125 -2 2 C-1.34 1.34 -0.68 0.68 0 0 Z " fill="#FFA59A" transform="translate(1575,144)"/>
<path d="M0 0 C0 0.66 0 1.32 0 2 C-2.90600261 3.25664978 -4.79604584 4 -8 4 C-8 5.65 -8 7.3 -8 9 C-8.33 9 -8.66 9 -9 9 C-9 6.36 -9 3.72 -9 1 C-5.94152152 0.45627049 -3.11227195 0 0 0 Z " fill="#FFA397" transform="translate(225,143)"/>
<path d="M0 0 C1.98 0.495 1.98 0.495 4 1 C3.67 2.65 3.34 4.3 3 6 C1.68 5.67 0.36 5.34 -1 5 C-0.67 3.35 -0.34 1.7 0 0 Z " fill="#FF9A8E" transform="translate(944,383)"/>
<path d="M0 0 C1.98 0.495 1.98 0.495 4 1 C3.67 2.65 3.34 4.3 3 6 C1.68 5.67 0.36 5.34 -1 5 C-0.67 3.35 -0.34 1.7 0 0 Z " fill="#FF9C90" transform="translate(875,383)"/>
<path d="M0 0 C2.475 0.495 2.475 0.495 5 1 C4.67 2.65 4.34 4.3 4 6 C2.68 5.67 1.36 5.34 0 5 C0 3.35 0 1.7 0 0 Z " fill="#FF9C90" transform="translate(389,190)"/>
<path d="M0 0 C2.475 0.495 2.475 0.495 5 1 C4.67 2.65 4.34 4.3 4 6 C2.68 5.67 1.36 5.34 0 5 C0 3.35 0 1.7 0 0 Z " fill="#FF9D90" transform="translate(275,190)"/>
<path d="M0 0 C1.98 0.495 1.98 0.495 4 1 C3.67 2.65 3.34 4.3 3 6 C1.68 5.67 0.36 5.34 -1 5 C-0.67 3.35 -0.34 1.7 0 0 Z " fill="#FF9B8E" transform="translate(177,190)"/>
<path d="M0 0 C1.98 0.495 1.98 0.495 4 1 C3.67 2.65 3.34 4.3 3 6 C1.68 5.67 0.36 5.34 -1 5 C-0.67 3.35 -0.34 1.7 0 0 Z " fill="#FFA297" transform="translate(1614,176)"/>
<path d="M0 0 C1.98 0.495 1.98 0.495 4 1 C3.67 2.65 3.34 4.3 3 6 C1.68 5.67 0.36 5.34 -1 5 C-0.67 3.35 -0.34 1.7 0 0 Z " fill="#FFA397" transform="translate(1459,176)"/>
<path d="M0 0 C1.65 0 3.3 0 5 0 C5 0.66 5 1.32 5 2 C4.01 2 3.02 2 2 2 C2 4.31 2 6.62 2 9 C1.34 9 0.68 9 0 9 C0 6.03 0 3.06 0 0 Z " fill="#FFDAD5" transform="translate(1040,381)"/>
<path d="M0 0 C0.99 0 1.98 0 3 0 C2.125 3.875 2.125 3.875 1 5 C-0.66617115 5.04063832 -2.33388095 5.042721 -4 5 C-4.66 3.68 -5.32 2.36 -6 1 C-4.02 1.66 -2.04 2.32 0 3 C0 2.01 0 1.02 0 0 Z " fill="#FFE6E3" transform="translate(1692,254)"/>
<path d="M0 0 C1.67542976 0.28604898 3.34385343 0.61781233 5 1 C5 3.31 5 5.62 5 8 C4.34 7.67 3.68 7.34 3 7 C3.33 6.34 3.66 5.68 4 5 C2.68 4.67 1.36 4.34 0 4 C0.33 3.67 0.66 3.34 1 3 C0.34 2.34 -0.32 1.68 -1 1 C-0.67 0.67 -0.34 0.34 0 0 Z " fill="#FFDFDB" transform="translate(1490,250)"/>
<path d="M0 0 C1.65 0.33 3.3 0.66 5 1 C5 2.32 5 3.64 5 5 C4.38125 5.12375 3.7625 5.2475 3.125 5.375 C0.80879168 5.87197356 0.80879168 5.87197356 -1 8 C-0.67 6.68 -0.34 5.36 0 4 C1.32 4 2.64 4 4 4 C4 3.34 4 2.68 4 2 C2.35 2.33 0.7 2.66 -1 3 C-0.67 2.01 -0.34 1.02 0 0 Z " fill="#FFE4E1" transform="translate(982,381)"/>
<path d="M0 0 C2.475 0.495 2.475 0.495 5 1 C4.67 2.32 4.34 3.64 4 5 C2.68 5 1.36 5 0 5 C0 3.35 0 1.7 0 0 Z " fill="#FF9C90" transform="translate(902,383)"/>
<path d="M0 0 C0.598125 0.20625 1.19625 0.4125 1.8125 0.625 C0.6678125 1.5221875 0.6678125 1.5221875 -0.5 2.4375 C-2.5358575 4.09459332 -4.3853279 5.72797674 -6.1875 7.625 C-5.875 4.75 -5.875 4.75 -5.1875 1.625 C-2.1875 -0.375 -2.1875 -0.375 0 0 Z " fill="#FFEFEE" transform="translate(233.1875,233.375)"/>
<path d="M0 0 C0.99 0 1.98 0 3 0 C3 2.31 3 4.62 3 7 C3.66 7 4.32 7 5 7 C5 7.66 5 8.32 5 9 C3.35 8.67 1.7 8.34 0 8 C0 5.36 0 2.72 0 0 Z " fill="#FFEEEC" transform="translate(182,143)"/>
<path d="M0 0 C0.66 0 1.32 0 2 0 C3.35015859 4.05047576 2.62084998 6.7920168 2 11 C1.34 11 0.68 11 0 11 C0 7.37 0 3.74 0 0 Z " fill="#FFFDFD" transform="translate(201,141)"/>
<path d="M0 0 C1.65 0.33 3.3 0.66 5 1 C4.67 2.32 4.34 3.64 4 5 C2.35 4.67 0.7 4.34 -1 4 C-0.67 2.68 -0.34 1.36 0 0 Z " fill="#FFC6BF" transform="translate(1032,385)"/>
<path d="M0 0 C0.33 0.66 0.66 1.32 1 2 C1.66 2.33 2.32 2.66 3 3 C3 5.64 3 8.28 3 11 C2.01 10.67 1.02 10.34 0 10 C-1.125 2.25 -1.125 2.25 0 0 Z " fill="#FFE7E4" transform="translate(952,379)"/>
<path d="M0 0 C1.32 0 2.64 0 4 0 C4 0.66 4 1.32 4 2 C3.34 2 2.68 2 2 2 C2 4.31 2 6.62 2 9 C1.34 9 0.68 9 0 9 C0 6.03 0 3.06 0 0 Z " fill="#FFD9D4" transform="translate(891,381)"/>
<path d="M0 0 C1.65 0 3.3 0 5 0 C4.34 0.66 3.68 1.32 3 2 C2.59952556 4.32275177 2.2602896 6.65739357 2 9 C1.34 9 0.68 9 0 9 C0 6.03 0 3.06 0 0 Z " fill="#FFDEDB" transform="translate(1434,250)"/>
<path d="M0 0 C0.66 0 1.32 0 2 0 C2.33 3.3 2.66 6.6 3 10 C2.01 10 1.02 10 0 10 C0 6.7 0 3.4 0 0 Z " fill="#FFF9F8" transform="translate(1664,247)"/>
<path d="M0 0 C1.32 0 2.64 0 4 0 C4 1.65 4 3.3 4 5 C2.68 5 1.36 5 0 5 C0 3.35 0 1.7 0 0 Z " fill="#FF978A" transform="translate(465,190)"/>
<path d="M0 0 C1.32 0 2.64 0 4 0 C4 1.65 4 3.3 4 5 C2.68 5 1.36 5 0 5 C0 3.35 0 1.7 0 0 Z " fill="#FF978A" transform="translate(399,190)"/>
<path d="M0 0 C1.65 0.33 3.3 0.66 5 1 C5 1.99 5 2.98 5 4 C3.02 4 1.04 4 -1 4 C-0.67 2.68 -0.34 1.36 0 0 Z " fill="#FFA79C" transform="translate(1434,145)"/>
<path d="M0 0 C1.9375 0.8125 1.9375 0.8125 4 2 C4.33 2.99 4.66 3.98 5 5 C0.25 5.125 0.25 5.125 -2 4 C-1.34 2.68 -0.68 1.36 0 0 Z " fill="#FFC9C2" transform="translate(191,141)"/>
<path d="M0 0 C2.97 0.33 5.94 0.66 9 1 C8.01 2.485 8.01 2.485 7 4 C4.375 4.1875 4.375 4.1875 2 4 C1.34 2.68 0.68 1.36 0 0 Z " fill="#FFE9E7" transform="translate(1653,255)"/>
<path d="M0 0 C0.66 0 1.32 0 2 0 C2 2.31 2 4.62 2 7 C1.01 7 0.02 7 -1 7 C-0.67 4.69 -0.34 2.38 0 0 Z " fill="#FF9F94" transform="translate(1408,207)"/>
<path d="M0 0 C0.66 0 1.32 0 2 0 C2 2.31 2 4.62 2 7 C1.01 7 0.02 7 -1 7 C-0.67 4.69 -0.34 2.38 0 0 Z " fill="#FF9F94" transform="translate(1408,175)"/>
<path d="M0 0 C3.375 -0.1875 3.375 -0.1875 7 0 C7.66 0.99 8.32 1.98 9 3 C5.625 3.1875 5.625 3.1875 2 3 C1.34 2.01 0.68 1.02 0 0 Z " fill="#FF9F94" transform="translate(903,203)"/>
<path d="M0 0 C2.4294516 3.6441774 2.16179575 5.71241272 2 10 C1.01 10 0.02 10 -1 10 C-0.67 6.7 -0.34 3.4 0 0 Z " fill="#FFABA1" transform="translate(889,192)"/>
<path d="M0 0 C0.125 2.875 0.125 2.875 0 6 C-0.66 6.66 -1.32 7.32 -2 8 C-2.66 6.02 -3.32 4.04 -4 2 C-1 0 -1 0 0 0 Z " fill="#FFA196" transform="translate(1556,178)"/>
<path d="M0 0 C2.475 0.495 2.475 0.495 5 1 C5 1.99 5 2.98 5 4 C3.35 4 1.7 4 0 4 C0 2.68 0 1.36 0 0 Z " fill="#FF9C90" transform="translate(1436,177)"/>
<path d="M0 0 C0.33 0.66 0.66 1.32 1 2 C1.66 2.33 2.32 2.66 3 3 C2.34 3 1.68 3 1 3 C1 5.31 1 7.62 1 10 C1.66 10.33 2.32 10.66 3 11 C2.01 11 1.02 11 0 11 C-0.144375 9.88625 -0.28875 8.7725 -0.4375 7.625 C-0.78372035 4.17857953 -0.78372035 4.17857953 -2 2 C-1.34 2 -0.68 2 0 2 C0 1.34 0 0.68 0 0 Z " fill="#FFF2F0" transform="translate(921,379)"/>
<path d="M0 0 C2.475 0.495 2.475 0.495 5 1 C4.67 1.99 4.34 2.98 4 4 C2.68 4 1.36 4 0 4 C0 2.68 0 1.36 0 0 Z " fill="#FFAFA5" transform="translate(1725,253)"/>
<path d="M0 0 C5.53846154 -0.36923077 5.53846154 -0.36923077 7.875 1.5 C8.24625 1.995 8.6175 2.49 9 3 C2.25 3.125 2.25 3.125 0 2 C0 1.34 0 0.68 0 0 Z " fill="#FFA094" transform="translate(984,203)"/>
<path d="M0 0 C0.66 0.66 1.32 1.32 2 2 C1.9765625 4.1640625 1.9765625 4.1640625 1.625 6.625 C1.51414062 7.44226563 1.40328125 8.25953125 1.2890625 9.1015625 C1.19367188 9.72804687 1.09828125 10.35453125 1 11 C-0.625 9.4375 -0.625 9.4375 -2 7 C-1.1875 3.25 -1.1875 3.25 0 0 Z " fill="#FFA397" transform="translate(1604,175)"/>
<path d="M0 0 C0.99 0.33 1.98 0.66 3 1 C3 2.65 3 4.3 3 6 C2.01 6 1.02 6 0 6 C0 4.02 0 2.04 0 0 Z " fill="#FFA498" transform="translate(1417,209)"/>
<path d="M0 0 C0.33 0.66 0.66 1.32 1 2 C1.66 2.33 2.32 2.66 3 3 C2.67 3.33 2.34 3.66 2 4 C1.80850919 7.63194641 1.80850919 7.63194641 3 11 C2.01 10.67 1.02 10.34 0 10 C-1.125 2.25 -1.125 2.25 0 0 Z " fill="#FFF4F2" transform="translate(483,186)"/>
<path d="M0 0 C0.33 0.66 0.66 1.32 1 2 C1.66 2.33 2.32 2.66 3 3 C2.67 3.33 2.34 3.66 2 4 C1.80850919 7.63194641 1.80850919 7.63194641 3 11 C2.01 10.67 1.02 10.34 0 10 C-1.125 2.25 -1.125 2.25 0 0 Z " fill="#FFF4F3" transform="translate(293,186)"/>
<path d="M0 0 C0.99 0.33 1.98 0.66 3 1 C3 2.65 3 4.3 3 6 C2.01 6 1.02 6 0 6 C0 4.02 0 2.04 0 0 Z " fill="#FFA498" transform="translate(1417,177)"/>
</svg>
